<?xml version="1.0" encoding="UTF-8" standalone="no"?>
<svg
   width="771.96326"
   height="572.20349"
   id="svg2"
   version="1.1"
   viewBox="0 -0.10571685 771.96567 572.39869"
   xmlns:xlink="http://www.w3.org/1999/xlink"
   xmlns="http://www.w3.org/2000/svg"
   xmlns:svg="http://www.w3.org/2000/svg"
   xmlns:rdf="http://www.w3.org/1999/02/22-rdf-syntax-ns#"
   xmlns:cc="http://creativecommons.org/ns#"
   xmlns:dc="http://purl.org/dc/elements/1.1/">
  <rect
     id="svgEditorBackground"
     x="-218.54543"
     y="-57.854511"
     width="1083.29"
     height="620.14398"
     style="fill:none;stroke:none"
     ry="0" />
  <defs
     id="defs4">
    <marker
       orient="auto"
       refY="0"
       refX="0"
       id="Arrow1Mend"
       style="overflow:visible">
      <path
         id="path4671"
         d="M 0,0 5,-5 -12.5,0 5,5 Z"
         style="fill-rule:evenodd;stroke:#000000;stroke-width:1pt;marker-start:none"
         transform="matrix(-0.4,0,0,-0.4,-4,0)" />
    </marker>
    <marker
       orient="auto"
       refY="0"
       refX="0"
       id="DotM"
       style="overflow:visible">
      <path
         id="path4727"
         d="m -2.5,-1 c 0,2.76 -2.24,5 -5,5 -2.76,0 -5,-2.24 -5,-5 0,-2.76 2.24,-5 5,-5 2.76,0 5,2.24 5,5 z"
         style="fill-rule:evenodd;stroke:#000000;stroke-width:1pt;marker-start:none;marker-end:none"
         transform="matrix(0.4,0,0,0.4,2.96,0.4)" />
    </marker>
    <linearGradient
       id="linearGradient4647">
      <stop
         id="stop4649"
         offset="0"
         style="stop-color:#e7e7e7;stop-opacity:0.55603451;" />
      <stop
         id="stop4651"
         offset="1"
         style="stop-color:#ffffff;stop-opacity:0;" />
    </linearGradient>
    <linearGradient
       id="linearGradient4354">
      <stop
         style="stop-color:#e6a92d;stop-opacity:1;"
         offset="0"
         id="stop4356" />
      <stop
         style="stop-color:#ffffff;stop-opacity:1;"
         offset="1"
         id="stop4358" />
    </linearGradient>
    <linearGradient
       id="linearGradient4336">
      <stop
         style="stop-color:#ffffff;stop-opacity:1;"
         offset="0"
         id="stop4338" />
      <stop
         style="stop-color:#ffffff;stop-opacity:0;"
         offset="1"
         id="stop4340" />
    </linearGradient>
    <linearGradient
       id="linearGradient4251">
      <stop
         style="stop-color:#fefcfb;stop-opacity:1;"
         offset="0"
         id="stop4253" />
      <stop
         style="stop-color:#ff8e7d;stop-opacity:1;"
         offset="1"
         id="stop4255" />
    </linearGradient>
    <linearGradient
       id="linearGradient4197">
      <stop
         style="stop-color:#5f3418;stop-opacity:1;"
         offset="0"
         id="stop4199" />
      <stop
         style="stop-color:#dea27b;stop-opacity:0.84482759;"
         offset="1"
         id="stop4201" />
    </linearGradient>
    <linearGradient
       id="linearGradient4189">
      <stop
         style="stop-color:#c89c37;stop-opacity:1;"
         offset="0"
         id="stop4191" />
      <stop
         style="stop-color:#37c837;stop-opacity:0;"
         offset="1"
         id="stop4193" />
    </linearGradient>
    <linearGradient
       id="linearGradient3930">
      <stop
         style="stop-color:#ffffff;stop-opacity:1;"
         offset="0"
         id="stop3932" />
      <stop
         style="stop-color:#00dc00;stop-opacity:0;"
         offset="1"
         id="stop3934" />
    </linearGradient>
    <linearGradient
       id="linearGradient3902">
      <stop
         style="stop-color:#ffdbc4;stop-opacity:1;"
         offset="0"
         id="stop3904" />
      <stop
         style="stop-color:#a16035;stop-opacity:1;"
         offset="1"
         id="stop3906" />
    </linearGradient>
    <linearGradient
       id="linearGradient4554-9">
      <stop
         style="stop-color:#ff2a2a;stop-opacity:1;"
         offset="0"
         id="stop4556-7" />
      <stop
         style="stop-color:#0000d4;stop-opacity:1"
         offset="1"
         id="stop4558-6" />
    </linearGradient>
    <linearGradient
       xlink:href="#linearGradient4554-9"
       id="linearGradient4560-4"
       x1="-174.97552"
       y1="325.50168"
       x2="-156.95357"
       y2="324.99301"
       gradientUnits="userSpaceOnUse"
       gradientTransform="translate(363.98573,93.514121)" />
    <radialGradient
       xlink:href="#linearGradient4647"
       id="radialGradient23665"
       gradientUnits="userSpaceOnUse"
       gradientTransform="matrix(0.42451662,-0.15482424,0.94015163,-2.8041464,71.10508,1752.0731)"
       cx="441.80899"
       cy="248.12344"
       fx="441.80899"
       fy="248.12344"
       r="10.147221" />
    <radialGradient
       xlink:href="#linearGradient4647"
       id="radialGradient23667"
       gradientUnits="userSpaceOnUse"
       gradientTransform="matrix(0.42451662,-0.15482424,0.94015163,-2.8041464,-154.04815,1733.7299)"
       cx="441.80899"
       cy="248.12344"
       fx="441.80899"
       fy="248.12344"
       r="10.147221" />
    <linearGradient
       xlink:href="#linearGradient4554-9"
       id="linearGradient23669"
       gradientUnits="userSpaceOnUse"
       gradientTransform="matrix(-0.31418858,0.08846733,-0.0474157,0.26499623,257.26642,913.39333)"
       x1="-134.19768"
       y1="318.67047"
       x2="-116.5611"
       y2="320.97046" />
    <linearGradient
       xlink:href="#linearGradient4554-9"
       id="linearGradient23671"
       gradientUnits="userSpaceOnUse"
       gradientTransform="matrix(-0.3109878,-0.03482742,-0.07005984,0.24638923,487.48306,921.28094)"
       x1="-134.19768"
       y1="318.67047"
       x2="-116.5611"
       y2="320.97046" />
    <linearGradient
       xlink:href="#linearGradient4554-9"
       id="linearGradient23673"
       gradientUnits="userSpaceOnUse"
       gradientTransform="translate(360.37055,688.47662)"
       x1="-174.97552"
       y1="325.50168"
       x2="-156.95357"
       y2="324.99301" />
    <linearGradient
       xlink:href="#linearGradient4554-9"
       id="linearGradient23675"
       gradientUnits="userSpaceOnUse"
       gradientTransform="matrix(0.47831959,0.60526024,-0.5696995,0.62878801,536.9761,910.6806)"
       x1="-134.19768"
       y1="318.67047"
       x2="-116.5611"
       y2="320.97046" />
    <linearGradient
       xlink:href="#linearGradient4354"
       id="linearGradient23677"
       gradientUnits="userSpaceOnUse"
       gradientTransform="matrix(-0.75093443,0.10440026,0.18470469,0.42444916,589.06019,821.16844)"
       x1="150.88449"
       y1="705.77606"
       x2="150.88449"
       y2="651.99542" />
    <linearGradient
       xlink:href="#linearGradient4354"
       id="linearGradient23679"
       gradientUnits="userSpaceOnUse"
       gradientTransform="matrix(-0.75089186,0.11520305,0.18469422,0.46836889,529.28703,856.66195)"
       x1="150.88449"
       y1="705.77606"
       x2="150.88449"
       y2="651.99542" />
    <linearGradient
       xlink:href="#linearGradient4354"
       id="linearGradient23681"
       gradientUnits="userSpaceOnUse"
       gradientTransform="matrix(-0.75340161,0.07768866,0.18531154,0.3158506,572.57933,968.52867)"
       x1="150.88449"
       y1="705.77606"
       x2="150.88449"
       y2="651.99542" />
    <linearGradient
       xlink:href="#linearGradient4354"
       id="linearGradient23683"
       gradientUnits="userSpaceOnUse"
       gradientTransform="matrix(-0.45335664,0.4785078,0.52705114,0.23030234,216.53911,897.12205)"
       x1="150.88449"
       y1="705.77606"
       x2="150.88449"
       y2="651.99542" />
    <linearGradient
       xlink:href="#linearGradient4354"
       id="linearGradient23685"
       gradientUnits="userSpaceOnUse"
       gradientTransform="matrix(0.75156041,0.10447646,-0.18485867,0.42475894,430.41269,885.82891)"
       x1="150.88449"
       y1="705.77606"
       x2="150.88449"
       y2="651.99542" />
    <linearGradient
       xlink:href="#linearGradient4354"
       id="linearGradient23687"
       gradientUnits="userSpaceOnUse"
       gradientTransform="matrix(0.36366868,0.41325025,-0.61428315,0.16963691,723.26625,936.25902)"
       x1="150.88449"
       y1="705.77606"
       x2="148.58273"
       y2="651.92163" />
    <linearGradient
       xlink:href="#linearGradient4354"
       id="linearGradient23689"
       gradientUnits="userSpaceOnUse"
       gradientTransform="matrix(0.36364807,0.45601118,-0.61424832,0.18719003,706.81227,991.7795)"
       x1="150.88449"
       y1="705.77606"
       x2="148.58273"
       y2="651.92163" />
    <linearGradient
       xlink:href="#linearGradient4354"
       id="linearGradient23691"
       gradientUnits="userSpaceOnUse"
       gradientTransform="matrix(0.36282174,0.57987084,-0.61285255,0.23803373,601.40417,933.30026)"
       x1="150.88449"
       y1="705.77606"
       x2="148.58273"
       y2="651.92163" />
    <linearGradient
       xlink:href="#linearGradient4354"
       id="linearGradient23693"
       gradientUnits="userSpaceOnUse"
       gradientTransform="matrix(0.64965041,0.15253142,-0.15979223,0.62013089,304.16745,739.77665)"
       x1="150.88449"
       y1="705.77606"
       x2="150.88449"
       y2="651.99542" />
    <linearGradient
       xlink:href="#linearGradient4354"
       id="linearGradient23695"
       gradientUnits="userSpaceOnUse"
       gradientTransform="matrix(0.74968548,0.12385527,-0.18439749,0.50354532,669.44733,757.39045)"
       x1="150.88449"
       y1="705.77606"
       x2="150.88449"
       y2="651.99542" />
    <linearGradient
       xlink:href="#linearGradient4354"
       id="linearGradient23697"
       gradientUnits="userSpaceOnUse"
       gradientTransform="matrix(0.60327144,0.14122237,-0.14838455,0.57415294,660.61198,774.75578)"
       x1="150.88449"
       y1="705.77606"
       x2="150.88449"
       y2="651.99542" />
    <linearGradient
       xlink:href="#linearGradient4354"
       id="linearGradient23699"
       gradientUnits="userSpaceOnUse"
       gradientTransform="matrix(-0.7505125,0.1216005,0.18460091,0.49437833,481.88627,839.16677)"
       x1="150.88449"
       y1="705.77606"
       x2="150.88449"
       y2="651.99542" />
    <linearGradient
       xlink:href="#linearGradient4354"
       id="linearGradient23701"
       gradientUnits="userSpaceOnUse"
       gradientTransform="matrix(-0.75115426,0.09832432,0.18475876,0.39974682,545.7279,841.96454)"
       x1="150.88449"
       y1="705.77606"
       x2="150.88449"
       y2="651.99542" />
    <linearGradient
       xlink:href="#linearGradient4354"
       id="linearGradient23703"
       gradientUnits="userSpaceOnUse"
       gradientTransform="matrix(0.74968548,0.12385527,-0.18439749,0.50354532,424.413,760.87976)"
       x1="150.88449"
       y1="705.77606"
       x2="150.88449"
       y2="651.99542" />
    <linearGradient
       xlink:href="#linearGradient4354"
       id="linearGradient23705"
       gradientUnits="userSpaceOnUse"
       gradientTransform="matrix(0.74853236,0.14332494,-0.18411387,0.58270113,325.78576,697.64046)"
       x1="150.88449"
       y1="705.77606"
       x2="150.88449"
       y2="651.99542" />
    <linearGradient
       xlink:href="#linearGradient4354"
       id="linearGradient23707"
       gradientUnits="userSpaceOnUse"
       gradientTransform="matrix(-0.90017209,0.31044185,0.4919032,0.56810181,67.980007,676.31071)"
       x1="150.88449"
       y1="705.77606"
       x2="150.88449"
       y2="651.99542" />
    <linearGradient
       xlink:href="#linearGradient4354"
       id="linearGradient23709"
       gradientUnits="userSpaceOnUse"
       gradientTransform="matrix(0.60330564,0.12797971,-0.14839296,0.52031366,88.383296,740.74908)"
       x1="150.88449"
       y1="705.77606"
       x2="150.88449"
       y2="651.99542" />
    <linearGradient
       xlink:href="#linearGradient4354"
       id="linearGradient23711"
       gradientUnits="userSpaceOnUse"
       gradientTransform="matrix(0.74964298,0.13667115,-0.18438704,0.5556495,103.19441,786.70183)"
       x1="150.88449"
       y1="705.77606"
       x2="148.58273"
       y2="651.92163" />
    <linearGradient
       xlink:href="#linearGradient4354"
       id="linearGradient23713"
       gradientUnits="userSpaceOnUse"
       gradientTransform="matrix(0.75125861,0.10499738,-0.18478443,0.4268768,158.49244,884.30157)"
       x1="150.88449"
       y1="705.77606"
       x2="150.88449"
       y2="651.99542" />
    <linearGradient
       xlink:href="#linearGradient4354"
       id="linearGradient23715"
       gradientUnits="userSpaceOnUse"
       gradientTransform="matrix(0.72890561,0.11970427,-0.17928634,0.48666905,206.50595,839.55514)"
       x1="150.88449"
       y1="705.77606"
       x2="150.88449"
       y2="651.99542" />
    <linearGradient
       xlink:href="#linearGradient4354"
       id="linearGradient23717"
       gradientUnits="userSpaceOnUse"
       gradientTransform="matrix(0.74853236,0.14332494,-0.18411387,0.58270113,233.15083,695.31425)"
       x1="150.88449"
       y1="705.77606"
       x2="150.88449"
       y2="651.99542" />
    <linearGradient
       xlink:href="#linearGradient4354"
       id="linearGradient23719"
       gradientUnits="userSpaceOnUse"
       gradientTransform="matrix(0.74853236,0.14332494,-0.18411387,0.58270113,136.03356,698.22201)"
       x1="150.88449"
       y1="705.77606"
       x2="150.88449"
       y2="651.99542" />
    <linearGradient
       xlink:href="#linearGradient4354"
       id="linearGradient23721"
       gradientUnits="userSpaceOnUse"
       gradientTransform="matrix(0.67643489,0.28775003,-0.36964097,0.52657627,323.00082,713.03975)"
       x1="150.88449"
       y1="705.77606"
       x2="150.88449"
       y2="651.99542" />
    <radialGradient
       xlink:href="#linearGradient4336"
       id="radialGradient23723"
       gradientUnits="userSpaceOnUse"
       gradientTransform="matrix(0.42925907,0.16575386,-1.0708397,3.2708691,573.65052,-29.790039)"
       cx="441.80899"
       cy="248.12344"
       fx="441.80899"
       fy="248.12344"
       r="10.147221" />
    <radialGradient
       xlink:href="#linearGradient4336"
       id="radialGradient23725"
       gradientUnits="userSpaceOnUse"
       gradientTransform="matrix(0.48635633,0.10898206,-0.73010151,3.2582378,409.52685,-12.654809)"
       cx="441.80899"
       cy="248.12344"
       fx="441.80899"
       fy="248.12344"
       r="10.147221" />
    <linearGradient
       xlink:href="#linearGradient4197"
       id="linearGradient23727"
       gradientUnits="userSpaceOnUse"
       gradientTransform="matrix(-0.91964645,-0.39274726,-0.39274726,0.91964645,915.06383,759.63737)"
       x1="291.68512"
       y1="278.89246"
       x2="240.89232"
       y2="271.5105" />
    <radialGradient
       xlink:href="#linearGradient3930"
       id="radialGradient23729"
       gradientUnits="userSpaceOnUse"
       gradientTransform="matrix(1,0,0,0.57894739,0,91.035119)"
       cx="364.41254"
       cy="216.20842"
       fx="364.41254"
       fy="216.20842"
       r="4.7982244" />
    <radialGradient
       xlink:href="#linearGradient3930"
       id="radialGradient23731"
       gradientUnits="userSpaceOnUse"
       gradientTransform="matrix(1,0,0,0.57894739,0,91.035119)"
       cx="364.41254"
       cy="216.20842"
       fx="364.41254"
       fy="216.20842"
       r="4.7982244" />
    <radialGradient
       xlink:href="#linearGradient3930"
       id="radialGradient23733"
       gradientUnits="userSpaceOnUse"
       gradientTransform="matrix(1,0,0,0.57894739,0,91.035119)"
       cx="364.41254"
       cy="216.20842"
       fx="364.41254"
       fy="216.20842"
       r="4.7982244" />
    <radialGradient
       xlink:href="#linearGradient3930"
       id="radialGradient23735"
       gradientUnits="userSpaceOnUse"
       gradientTransform="matrix(1,0,0,0.57894739,0,91.035119)"
       cx="364.41254"
       cy="216.20842"
       fx="364.41254"
       fy="216.20842"
       r="4.7982244" />
    <radialGradient
       xlink:href="#linearGradient3930"
       id="radialGradient23737"
       gradientUnits="userSpaceOnUse"
       gradientTransform="matrix(1,0,0,0.57894739,0,91.035119)"
       cx="364.41254"
       cy="216.20842"
       fx="364.41254"
       fy="216.20842"
       r="4.7982244" />
    <radialGradient
       xlink:href="#linearGradient3930"
       id="radialGradient23739"
       gradientUnits="userSpaceOnUse"
       gradientTransform="matrix(1,0,0,0.57894739,0,91.035119)"
       cx="364.41254"
       cy="216.20842"
       fx="364.41254"
       fy="216.20842"
       r="4.7982244" />
    <radialGradient
       xlink:href="#linearGradient3930"
       id="radialGradient23741"
       gradientUnits="userSpaceOnUse"
       gradientTransform="matrix(1,0,0,0.57894739,0,91.035119)"
       cx="364.41254"
       cy="216.20842"
       fx="364.41254"
       fy="216.20842"
       r="4.7982244" />
    <radialGradient
       xlink:href="#linearGradient3930"
       id="radialGradient23743"
       gradientUnits="userSpaceOnUse"
       gradientTransform="matrix(1,0,0,0.57894739,0,91.035119)"
       cx="364.41254"
       cy="216.20842"
       fx="364.41254"
       fy="216.20842"
       r="4.7982244" />
    <linearGradient
       xlink:href="#linearGradient4197"
       id="linearGradient23745"
       gradientUnits="userSpaceOnUse"
       gradientTransform="translate(-2.295595,607.02049)"
       x1="291.68512"
       y1="278.89246"
       x2="240.89232"
       y2="271.5105" />
    <linearGradient
       xlink:href="#linearGradient4251"
       id="linearGradient23747"
       gradientUnits="userSpaceOnUse"
       x1="81.603111"
       y1="616.61743"
       x2="195.82104"
       y2="616.68109"
       spreadMethod="reflect" />
    <linearGradient
       xlink:href="#linearGradient4251"
       id="linearGradient23749"
       gradientUnits="userSpaceOnUse"
       x1="81.603111"
       y1="616.61743"
       x2="195.82104"
       y2="616.68109"
       spreadMethod="reflect" />
    <linearGradient
       xlink:href="#linearGradient3902"
       id="linearGradient23751"
       gradientUnits="userSpaceOnUse"
       gradientTransform="matrix(0.99472877,0,0,1.0000179,2.2435629,595.80973)"
       x1="462.85715"
       y1="226.6479"
       x2="462.85715"
       y2="501.81891" />
  </defs>
  <metadata
     id="metadata7">
    <rdf:RDF>
      <cc:Work
         rdf:about="">
        <dc:format>image/svg+xml</dc:format>
        <dc:type
           rdf:resource="http://purl.org/dc/dcmitype/StillImage" />
      </cc:Work>
    </rdf:RDF>
  </metadata>
  <g
     id="layer2"
     style="display:inline"
     transform="translate(-228.42051,-67.752206)">
    <g
       id="g23980"
       transform="translate(-1.43917,-595.8162)">
      <rect
         style="display:inline;fill:#e6a92d;fill-opacity:1;stroke:none"
         id="rect23439"
         width="625.6922"
         height="147.89667"
         x="56.713684"
         y="1058.0856"
         transform="translate(224.99433,18.501064)" />
      <path
         style="display:inline;fill:url(#linearGradient23751);fill-opacity:1;stroke:#000000;stroke-width:2.13691;stroke-linecap:round;stroke-linejoin:round;stroke-miterlimit:4;stroke-dashoffset:0;stroke-opacity:1"
         d="M 58.584818,799.71871 H 681.43626 v 296.84759 c 0,0 -103.46655,18.0003 -155.71286,18.0003 -52.24631,0 -103.67399,-13.3244 -155.71287,-18.0003 -51.80357,-4.6547 -103.70276,-10.0001 -155.71286,-10.0001 -52.01008,0 -155.712852,10.0001 -155.712852,10.0001 z"
         id="path23441"
         transform="translate(224.99433,18.501064)" />
      <g
         id="g23451"
         transform="matrix(0.29523219,-0.4546853,0.36211219,0.37070759,280.97575,801.43885)"
         style="display:inline">
        <path
           id="path23443"
           d="m 81.074932,605.30036 c 42.782218,7.13037 76.125438,-14.03188 114.614078,-14 38.58518,0.032 51.76119,23.73256 114.87816,14.2254 v 24.52147 c -49.91258,-9.24307 -76.20623,12.66036 -114.61407,12 -38.56946,-0.66314 -67.34238,-24.18672 -114.61408,-16 z"
           style="fill:url(#linearGradient23749);fill-opacity:1;stroke:#000000;stroke-width:1;stroke-linecap:round;stroke-linejoin:round;stroke-miterlimit:4;stroke-dashoffset:0;stroke-opacity:1" />
        <path
           id="path23445"
           d="m 194.10449,600.46939 c 18.4509,-0.21568 54.66617,8.7149 54.66617,8.7149 0,0 -38.3675,-2.72135 -57.57113,-2.3768 -18.27347,0.32786 -54.66616,4.22541 -54.66616,4.22541 0,0 38.06171,-10.33546 57.57112,-10.56351 z"
           style="fill:#ffc2b8;fill-opacity:1;stroke:none" />
        <path
           style="fill:#ffc2b8;fill-opacity:1;stroke:none"
           d="m 191.19954,633.02906 c -18.4509,0.21568 -54.66617,-8.7149 -54.66617,-8.7149 0,0 38.3675,2.72135 57.57113,2.3768 18.27347,-0.32786 54.66616,-4.22541 54.66616,-4.22541 0,0 -38.06171,10.33546 -57.57112,10.56351 z"
           id="path23447" />
        <path
           id="path23449"
           d="m 191.19954,619.02906 c -18.23521,0.58276 -54.66617,-2.7149 -54.66617,-2.7149 0,0 38.35357,-2.97941 57.57113,-3.6232 18.21199,-0.6101 54.66616,-0.22541 54.66616,-0.22541 0,0 -38.26629,5.94657 -57.57112,6.56351 z"
           style="fill:#ffc2b8;fill-opacity:1;stroke:none" />
      </g>
      <g
         transform="matrix(0.61956449,-0.710989,0.46886534,0.28600394,411.87225,895.92753)"
         id="g23461"
         style="display:inline">
        <path
           style="fill:url(#linearGradient23747);fill-opacity:1;stroke:#000000;stroke-width:1;stroke-linecap:round;stroke-linejoin:round;stroke-miterlimit:4;stroke-dashoffset:0;stroke-opacity:1"
           d="m 81.074932,605.30036 c 42.782218,7.13037 76.125438,-14.03188 114.614078,-14 38.58518,0.032 51.76119,23.73256 114.87816,14.2254 v 24.52147 c -49.91258,-9.24307 -76.20623,12.66036 -114.61407,12 -38.56946,-0.66314 -67.34238,-24.18672 -114.61408,-16 z"
           id="path23453" />
        <path
           style="fill:#ffc2b8;fill-opacity:1;stroke:none"
           d="m 194.10449,600.46939 c 18.4509,-0.21568 54.66617,8.7149 54.66617,8.7149 0,0 -38.3675,-2.72135 -57.57113,-2.3768 -18.27347,0.32786 -54.66616,4.22541 -54.66616,4.22541 0,0 38.06171,-10.33546 57.57112,-10.56351 z"
           id="path23455" />
        <path
           id="path23457"
           d="m 191.19954,633.02906 c -18.4509,0.21568 -54.66617,-8.7149 -54.66617,-8.7149 0,0 38.3675,2.72135 57.57113,2.3768 18.27347,-0.32786 54.66616,-4.22541 54.66616,-4.22541 0,0 -38.06171,10.33546 -57.57112,10.56351 z"
           style="fill:#ffc2b8;fill-opacity:1;stroke:none" />
        <path
           style="fill:#ffc2b8;fill-opacity:1;stroke:none"
           d="m 191.19954,619.02906 c -18.23521,0.58276 -54.66617,-2.7149 -54.66617,-2.7149 0,0 38.35357,-2.97941 57.57113,-3.6232 18.21199,-0.6101 54.66616,-0.22541 54.66616,-0.22541 0,0 -38.26629,5.94657 -57.57112,6.56351 z"
           id="path23459" />
      </g>
      <path
         style="display:inline;fill:#ffc29a;fill-opacity:1;stroke:#000000;stroke-width:2;stroke-miterlimit:4;stroke-dasharray:none;stroke-opacity:1"
         d="m 207.43917,760.0662 c -2.73533,-0.0199 -5.03571,0.0357 -6.84375,0.125 l -142,8 v 115.6875 c 0,0 28.991789,-76.96453 62.90625,-80.78125 31.22975,-3.51459 41.86741,55.59861 73.03125,59.65625 34.01597,4.429 75.79333,-75.26262 93.1875,-45.40625 6.68192,11.46923 -7.27227,33.67388 -9.5,44.5625 -1.43767,-3.94123 -7.44354,-5.00257 -9,-0.34375 -0.98968,1.6117 -1.72833,8.12783 -2.40625,3.53125 -1.0873,-6.03359 -0.92833,-17.24576 -9.40625,-17.40625 -7.1125,3.56693 -2.66953,12.82324 -6.09375,18.25 -6.44103,3.55846 -15.91731,-2.4162 -21.46875,4.0625 -5.29256,5.56592 -3.65479,18.83789 5.8125,18 3.06382,-0.11153 10.20179,-2.17283 10.09375,2.875 -0.78288,5.89053 -8.56508,11.88277 -3.46875,17.6875 6.40318,3.8092 10.12773,-5.47189 12.6875,-9.6875 0.62899,-1.4394 3.84507,-6.70602 4.5625,-2.6875 0.50298,4.26228 3.44155,11.98804 8.9375,9.0625 0.55058,-0.39358 1.06791,-0.89279 1.5625,-1.40625 -2.84049,14.68052 -6.68957,34.11481 -13.9375,68.78125 -0.32105,9.34891 2.1341,16.61181 12.6875,17.75 -3.84511,-10.58721 -3.97812,-15.8539 -2.375,-21.9375 1.67082,-6.17832 19.17108,-23.3264 25.1875,-26.5625 5.24107,9.6868 3.20548,32.63576 0.84375,42.65625 -1.69009,5.03521 -8.47661,15.1954 -3.40625,13.125 13.03368,-6.08431 18.57619,-21.51243 18.78125,-34.59375 8.76405,-86.82532 8.67802,-76.15362 14.03125,-133.0625 21.43167,18.30145 38.8188,49.2943 65.1875,46.75 36.04059,-3.47754 39.9802,-66.16113 76.10605,-63.72389 14.87616,1.00362 6.9516,54.35833 19.14289,40.69182 50.72127,-56.85882 40.94533,-9.64624 36.21981,21.56332 -5.91327,39.05399 -19.077,56.34122 -37.03125,112.5625 -1.28064,9.26635 0.40082,16.72025 10.78125,18.93755 -2.73612,-10.92651 -2.28265,-16.17603 -0.0625,-22.06255 2.29724,-5.97377 21.46397,-21.21219 27.78125,-23.8125 4.21726,10.17436 -0.18294,32.77547 -3.5625,42.50005 -2.19886,4.8347 -9.97512,14.2568 -4.71875,12.7187 13.59021,-4.7119 20.66971,-19.5091 22.21875,-32.5 5.96382,-28.8854 10.24647,-49.30368 13.875,-66.71875 1.07401,3.55494 1.36321,7.72915 3.125,10.625 3.90533,4.84898 9.64469,-1.09025 11.78125,-4.8125 2.23804,-3.41385 3.14315,2.67923 3.15625,4.25 0.69841,4.88222 0.45904,14.89453 7.84375,13.90625 6.96662,-3.33673 2.18773,-11.90032 3.78125,-17.625 1.88316,-4.68465 7.63242,0.007 10.40625,1.3125 8.37748,4.48881 14.71253,-3.52143 12.03125,-10.71875 1.54736,-17.84881 -13.63035,-6.35402 -18.15625,-12.15625 -1.01772,-6.33555 7.07758,-16.67627 1.9375,-22.75 -7.85972,-3.18209 -12.09914,7.19076 -15.46875,12.3125 -2.42874,3.96097 -0.56659,-2.31662 -0.84375,-4.1875 0.42491,-5.22215 -3.92019,-5.86602 -6.5,-1.96875 -2.1514,2.65569 -4.95936,6.57242 -8.375,9.0625 2.15245,-10.37985 4.21343,-20.44628 6.375,-31.09375 13.95371,-13.38162 27.16578,-31.2788 44.71875,-34.71875 25.88347,-5.07252 77.84375,14.125 77.84375,14.125 V 768.1912 l -155.71875,-4 c 0,0 -118.64732,1.21429 -139.71875,8 0,0 -137.53249,-11.8268 -178.5625,-12.125 z"
         id="path23463"
         transform="translate(224.99433,18.501064)" />
      <path
         style="display:inline;fill:#ff9955;fill-opacity:1;stroke:#000000;stroke-width:1.2296;stroke-miterlimit:4;stroke-dasharray:none;stroke-opacity:1"
         d="m 58.196829,742.74709 142.175631,-3.02012 c 28.96435,-0.53931 185.65791,4.53017 185.65791,4.53017 21.09749,-2.56171 139.88709,-3.02011 139.88709,-3.02011 l 155.90688,1.51006 v 28.04392 l -155.90688,-1.51005 c 0,0 -114.85617,0.32358 -139.88709,3.02011 0,0 -143.46293,-7.63119 -185.65791,-4.53017 l -142.175631,3.02011 z"
         id="path23465"
         transform="translate(224.99433,18.501064)" />
      <g
         id="g23471"
         transform="translate(246.4335,614.31726)"
         style="display:inline">
        <path
           d="m 117.71988,378.99974 c 0.53459,0.5265 1.15749,0.96429 1.74634,1.42968 1.0324,0.77435 1.96861,1.64923 2.80137,2.63283 0.93904,1.13786 1.61586,2.44931 2.03843,3.85731 0.30657,1.17815 0.28901,2.36627 -0.0583,3.52657 -0.0893,0.17174 -0.16326,0.35237 -0.26791,0.51521 -0.17861,0.2779 -0.56742,0.7388 -0.85321,0.90619 -6.36096,3.72574 -7.29593,5.25926 -12.02118,6.44605 -2.10224,0.44122 -4.28352,0.35628 -6.42082,0.33204 -3.45663,-0.0902 -6.896266,-0.43879 -10.33128,-0.81246 -2.76184,-0.31012 -5.516547,-0.67494 -8.271042,-1.04313 -1.83478,-0.19065 -3.597453,-0.7029 -5.36502,-1.19965 -1.455912,-0.41664 -2.892543,-0.89683 -4.34578,-1.3219 -1.312962,-0.37359 -2.660523,-0.59582 -4.011303,-0.77709 -1.262278,-0.16199 -2.527073,-0.27623 -3.798886,-0.2028 -1.326484,0.0899 -2.586285,0.46934 -3.796739,0.99821 -3.505471,1.9666 -8.196586,4.66781 8.29934,-4.77664 0.173701,-0.0994 -0.34695,0.20017 -0.513972,0.31047 -0.376465,0.24861 -0.58174,0.42907 -0.931656,0.71259 -0.786127,0.68669 -1.445075,1.50004 -2.056654,2.34166 -0.519972,0.7723 -1.061952,1.52763 -1.517921,2.3402 -0.454714,0.86849 -0.685593,1.82492 -0.84013,2.78639 -0.151403,1.17347 0.187391,2.26732 0.658271,3.3253 0.704074,1.53646 1.864536,2.72809 3.091092,3.85549 1.743252,1.53295 3.701804,2.79161 5.702672,3.95723 1.398017,0.77071 2.82518,1.4902 4.303516,2.09391 1.008955,0.39298 2.058095,0.69054 3.136513,0.80036 1.015539,0.13359 1.752404,-0.0759 2.64986,-0.51456 3.468895,-1.99243 7.786578,-4.46266 -8.827073,5.06494 -0.161395,0.0926 0.321689,-0.18707 0.48053,-0.28395 0.415778,-0.25357 0.547973,-0.34699 0.953786,-0.61646 1.008994,-0.70269 2.033516,-1.38152 3.009358,-2.13017 1.033576,-0.78486 2.024869,-1.62211 2.997821,-2.48029 1.202152,-0.99026 2.136077,-2.2422 3.090614,-3.46025 1.096346,-1.35926 2.05741,-2.81558 2.991801,-4.28825 0.981243,-1.50374 1.730975,-3.13426 2.474543,-4.76319 0.776128,-1.66595 1.555018,-3.331 2.417428,-4.95433 0.723391,-1.39946 1.559954,-2.73344 2.399881,-4.06447 0.77078,-1.17674 1.65574,-2.27082 2.53944,-3.36306 0.91248,-1.18401 1.83621,-2.35709 2.80001,-3.49987 0.9956,-1.12899 2.05881,-2.19605 3.10874,-3.27407 3.80302,-3.79717 8.9791,-5.91649 13.54768,-8.54495 1.46327,-0.72539 3.0614,-1.05483 4.65493,-1.34685 1.51448,-0.25546 3.03993,-0.48768 4.57814,-0.4028 1.4682,0.0983 2.75726,0.77399 3.98143,1.53668 1.3971,0.82988 2.48506,1.98998 3.4359,3.28802 1.11761,1.57746 1.93234,3.31916 2.58792,5.1298 0.70837,2.11704 0.84731,4.37699 1.04901,6.58705 0.2247,2.13597 0.13493,4.26009 -0.34768,6.3501 -0.69366,2.29567 -2.20977,4.16369 -4.04126,5.67486 -0.46798,0.38613 -0.97294,0.7251 -1.45941,1.08765 -0.57221,0.34804 -1.13351,0.7147 -1.71664,1.04413 -3.68385,2.08118 -7.34654,4.2024 -11.08324,6.18711 -0.65966,0.35038 -1.38597,0.55854 -2.08949,0.80948 -2.36828,0.84476 -4.77048,1.41369 -7.22382,1.94401 -5.86099,1.20644 -11.83716,1.65618 -17.797457,2.03808 -6.241629,0.43861 -12.500677,0.28068 -18.748644,0.10443 -4.37404,-0.12118 -8.735848,-0.48154 -13.07009,-1.07493 -2.626965,-0.37091 -5.163123,-1.08354 -7.610623,-2.09186 -1.732373,-0.71781 -3.110843,-1.56866 -4.375999,-2.95194 -0.944847,-1.10845 -1.571162,-2.38348 -2.012756,-3.75944 -0.437328,-1.51667 -0.509111,-3.09796 -0.493294,-4.66653 0.0027,-1.61898 0.24246,-3.21447 0.581006,-4.7929 0.295939,-1.40841 0.765311,-2.77084 1.286458,-4.10954 0.501258,-1.27876 1.20829,-2.45749 1.916497,-3.62888 0.704226,-1.1647 1.561355,-2.22268 2.423472,-3.27171 0.854902,-1.02754 1.79467,-1.98031 2.781098,-2.88088 3.92372,-3.32569 8.70178,-5.47742 13.119699,-8.02561 1.105506,-0.55258 2.274665,-0.93468 3.466059,-1.24916 1.24015,-0.31059 2.068603,-0.28501 3.288878,0.0563 1.244349,0.36926 2.324775,1.09025 3.309673,1.9159 1.042407,0.9333 1.696498,2.12793 2.195356,3.41444 0.555813,1.60284 0.673499,3.30499 0.804875,4.98331 0.129337,1.61765 0.211407,3.23966 0.183156,4.86253 -0.0341,1.50714 -0.374204,2.97337 -0.740411,4.42724 -0.386146,1.35684 -0.915738,2.66698 -1.439721,3.97499 -0.500093,1.25582 -1.136452,2.44826 -1.849656,3.59429 -0.749079,1.17939 -1.630019,2.26674 -2.51341,3.34655 -1.073616,1.32636 -2.383202,2.4327 -3.630961,3.58866 -1.381315,1.3403 -2.81785,2.6195 -4.265771,3.88665 -1.398592,1.23536 -2.765425,2.50409 -4.065079,3.84329 -1.048328,1.0921 -2.055481,2.21655 -2.91445,3.46439 -0.814009,1.17519 -1.271806,2.50513 -1.512006,3.90234 -0.229523,1.51398 0.07876,2.97869 0.589302,4.39778 0.605949,1.50627 1.591115,2.76346 2.740042,3.88865 1.304673,1.28481 2.924611,2.06001 4.618239,2.6878 1.938918,0.65811 3.968829,0.95528 5.994102,1.19607 2.166576,0.22854 4.342388,0.38262 6.520708,0.42334 1.415963,-0.0301 2.847931,-0.0781 4.244756,-0.33731 0.901063,-0.1672 1.355577,-0.32937 2.237605,-0.59295 0.918624,-0.34218 1.295077,-0.44606 2.15752,-0.91038 0.328446,-0.17683 1.280696,-0.76531 0.955978,-0.58173 -15.069344,8.51967 -10.2963,6.6193 -7.352563,3.73622 1.293414,-1.37143 2.070153,-3.06244 2.648982,-4.83137 0.574983,-1.78717 0.634707,-3.65123 0.661836,-5.50965 0.02162,-2.27212 -0.19365,-4.53505 -0.455293,-6.78903 -0.243064,-1.99805 -0.427307,-4.00307 -0.589103,-6.00921 -0.142081,-1.74421 -0.223367,-3.49235 -0.234786,-5.24215 -0.0152,-1.54094 0.05983,-3.07827 0.285077,-4.6027 0.233324,-1.37055 0.740552,-2.67208 1.285526,-3.94425 0.516106,-1.21284 1.231981,-2.31334 2.021655,-3.36216 0.712989,-0.97574 1.564757,-1.82591 2.442448,-2.65016 3.613653,-3.15022 8.04121,-7.78092 12.84578,-6.30989 1.25589,0.47896 2.30833,1.3379 3.30428,2.21885 1.12534,1.02686 1.9398,2.30236 2.64521,3.63819 0.78419,1.48406 1.24308,3.09729 1.67483,4.70943 0.43548,1.58846 0.7786,3.20004 1.22154,4.78626 0.35651,1.37234 0.81442,2.71407 1.27835,4.05286 0.40079,1.23887 0.87428,2.45005 1.41649,3.63337 0.61194,1.24455 1.36484,2.41089 2.15364,3.54887 0.90648,1.22866 1.94526,2.34849 3.0052,3.4441 1.15552,1.20046 2.50433,2.17561 3.88566,3.09534 1.59994,1.08808 3.30335,1.99911 5.05838,2.80683 2.85264,1.30287 -22.07963,1.97592 -19.02867,2.6266 3.39848,0.69432 6.83779,1.16729 10.29497,1.43359 3.53151,0.24703 7.06123,0.0978 10.54551,-0.51247 1.6958,-0.33029 3.33569,-0.87708 4.85747,-1.69863 0.32349,-0.17465 1.26994,-0.74132 0.95037,-0.55959 -2.96567,1.6865 -5.92585,3.38263 -8.88877,5.07394 1.47796,-0.96877 2.61161,-2.28307 3.39796,-3.8535 0.61481,-1.39085 0.67044,-2.84577 0.37879,-4.31564 -0.5179,-2.10224 -2.01102,-3.13128 -3.74984,-4.23783 -2.62093,-1.52897 -5.49605,-2.50657 -8.39085,-3.36579 -2.43384,-0.71586 -4.92879,-1.14966 -7.44698,-1.41901 -1.98075,-0.23324 24.02681,-0.10515 22.08568,0.33001 -0.2753,0.0753 -0.55554,0.13441 -0.82591,0.22582 -0.48649,0.16448 -1.07197,0.44425 -1.51608,0.69935 -0.25189,0.14468 -0.98886,0.60969 -0.73633,0.46611 8.92047,-5.07171 -15.9703,-7.19407 -19.79133,-4.62304 -2.34419,1.76564 23.57086,3.84747 21.50648,5.9254 -2.69936,2.63238 -5.26657,5.3937 -7.9537,8.03807 -1.99127,1.98417 -4.08675,3.85351 -6.23562,5.66373 -1.36755,1.18565 -2.80124,2.28911 -4.33644,3.24814 -3.52721,2.018 -7.04365,4.05493 -10.58162,6.05401 -0.91473,0.51686 -2.01464,0.6891 -3.04697,0.74328 -1.27321,-0.0536 -2.38012,-0.65232 -3.43219,-1.31655 -1.259157,-0.828 -2.310121,-1.90418 -3.33502,-2.99668 -1.04832,-1.08363 -1.813987,-2.36196 -2.423731,-3.73024 -0.522874,-1.30598 -0.865019,-2.67462 -1.146902,-4.04998 -0.241744,-1.32224 -0.391533,-2.65653 -0.462168,-3.99807 -0.04743,-1.20796 -0.0862,-2.41688 -0.104074,-3.62573 -0.01922,-1.09532 -0.01157,-2.19087 -0.01864,-3.28631 -0.01507,-1.06898 -0.0032,-2.13805 -0.0057,-3.20707 0.0022,-1.16715 0.02164,-2.33418 0.01844,-3.50133 0.0057,-1.18587 -0.0021,-2.37172 -0.01141,-3.55754 -0.01242,-1.10066 -0.0022,-2.20141 -0.007,-3.30212 -0.003,-1.02424 -0.01025,-2.04842 -0.02133,-3.07262 -0.0072,-0.87051 -0.02387,-1.74101 -0.01728,-2.61156 -0.0037,-0.89476 0.0065,-1.78841 0.06229,-2.68151 0.05867,-0.80472 0.111937,-1.60974 0.153563,-2.41552 0.04231,-0.75958 0.0422,-1.52082 0.101824,-2.27931 0.07452,-0.72254 0.148875,-1.44493 0.205608,-2.16912 0.02321,-1.80308 0.740601,-3.43752 1.040622,-5.20096 5.4466,-1.25775 10.791808,-9.5724 9.586548,-0.11909 -0.0472,0.73507 0.6513,1.2169 0.56089,1.9481 -0.0889,0.74343 -0.87538,1.73945 -0.89653,2.48808 -0.0416,0.81903 -0.0944,1.63746 -0.16904,2.45422 -0.0755,0.86631 -0.13833,1.72968 -0.0971,2.60027 0.007,0.8764 -0.0102,1.75277 -0.0172,2.62914 -0.011,1.03142 -0.0182,2.06281 -0.0212,3.09427 -0.005,1.10302 0.006,2.20607 -0.007,3.30904 -0.009,1.18949 -0.0167,2.37901 -0.0105,3.56853 -0.003,1.16026 0.0172,2.32039 0.021,3.48064 -10e-4,1.06908 0.0126,2.13818 0.002,3.20726 -0.002,1.09474 0.0102,2.1894 0.007,3.28413 0.002,1.20538 -0.0148,2.41074 0.0275,3.6158 0.0497,1.29114 0.14623,2.57399 0.36863,3.84875 0.25032,1.30141 0.52808,2.59876 1.0127,3.83782 0.53448,1.25733 1.22144,2.42571 2.18947,3.40465 0.95715,1.0167 1.97117,1.98641 3.20578,2.66392 0.96553,0.48226 1.96027,0.86929 3.05866,0.66139 0.7461,-0.15673 1.42777,-0.36876 2.11532,-0.70383 0.19453,-0.0948 0.7649,-0.40473 0.57794,-0.29575 -3.09447,1.80371 -6.20082,3.58695 -9.30123,5.38043 1.66643,-0.88975 3.22299,-1.95831 4.66855,-3.17674 2.29224,-1.84034 4.56992,-3.69951 6.67989,-5.75086 2.7373,-2.5792 5.29708,-5.32661 7.94469,-7.99603 1.92488,-2.02089 3.83109,-4.05977 5.9289,-5.90585 3.97692,-3.08547 -27.11127,-0.74333 -16.63721,-6.80382 1.01794,-0.58899 2.16747,-0.89578 3.31741,-1.09096 1.97891,-0.25403 3.97119,-0.25632 5.94555,0.0673 2.51716,0.35629 5.00431,0.88569 7.41899,1.6933 2.9281,1.01078 5.84103,2.11089 8.57589,3.5771 2.02566,1.25334 3.88569,2.36501 4.56616,4.79141 0.42874,1.66437 0.4735,3.34451 -0.086,4.99299 -0.24988,0.65752 -0.35913,1.02804 -0.71928,1.63925 -0.65245,1.10727 -1.57724,2.03992 -2.543,2.87222 -1.43635,0.84144 -8.51622,5.65523 -12.62049,7.09166 -1.2292,0.4302 -2.5061,0.69783 -3.79227,0.88841 -3.46248,0.40329 -6.9425,0.36729 -10.41829,0.12299 -3.54182,-0.25397 20.92752,-0.59423 17.47245,-1.46114 -3.18274,-0.7358 -6.39275,-1.42274 -9.46344,-2.55621 -1.85712,-0.7837 -3.58558,-1.8162 -5.28217,-2.90148 -1.44472,-0.97619 -2.87556,-1.9801 -4.07323,-3.26046 -1.11122,-1.13285 -2.18039,-2.30931 -3.13496,-3.57895 -0.84778,-1.17882 -1.63694,-2.40415 -2.29266,-3.7014 -0.58998,-1.21209 -1.08318,-2.46773 -1.49955,-3.75008 -0.43475,-1.3773 -0.88802,-2.75023 -1.2299,-4.15468 -0.41455,-1.599 -0.76391,-3.21411 -1.18577,-4.81132 -0.39752,-1.52342 -0.84905,-3.04745 -1.60009,-4.43963 -0.65725,-1.19699 -1.41399,-2.34203 -2.4563,-3.24295 -0.911203,-0.73344 -1.880699,-1.46713 -3.079525,-1.60259 -0.349116,0.007 -0.494071,-0.0167 -0.827763,0.0917 -0.1243,0.0404 -0.470079,0.22766 -0.357021,0.16208 3.241066,-1.87978 6.509249,-3.71273 9.742659,-5.60566 0.13497,-0.079 -0.30284,0.0869 -0.44099,0.16022 -0.1475,0.0783 -0.27211,0.19365 -0.40816,0.29048 -0.93108,0.75238 -1.84823,1.53842 -2.59958,2.47604 -0.80305,0.97888 -1.59455,1.97604 -2.1532,3.12029 -0.582471,1.18054 -1.095787,2.41142 -1.423912,3.68779 -0.323993,1.4672 -0.467364,2.96202 -0.468703,4.46513 -0.0269,1.73575 0.0328,3.46836 0.131803,5.20155 0.111183,2.01113 0.259619,4.01935 0.470838,6.02269 0.21783,2.28622 0.407976,4.57469 0.537504,6.86784 0.06889,1.93708 0.104719,3.89148 -0.423154,5.77753 -0.525376,1.91029 -1.279017,3.76275 -2.509112,5.33719 -3.305316,3.95633 -6.030108,4.32471 -12.017862,7.7966 -0.998613,0.57903 -2.126739,0.90924 -3.221865,1.24347 -2.212302,0.54516 -4.455284,0.83477 -6.739777,0.70624 -2.204183,-0.0865 -4.406221,-0.23292 -6.595808,-0.50793 -2.108906,-0.29211 -4.226808,-0.61179 -6.226362,-1.3778 -1.800329,-0.7467 -3.526072,-1.65533 -4.920703,-3.04746 -1.251792,-1.25175 -2.350143,-2.64232 -3.037744,-4.29047 -0.611973,-1.56605 -0.992901,-3.1883 -0.87899,-4.88403 0.13864,-1.53684 0.485506,-3.01252 1.268767,-4.362 0.830465,-1.35725 1.798854,-2.59334 2.937834,-3.71002 1.298439,-1.37944 2.659283,-2.69254 4.078604,-3.9475 1.417456,-1.29071 2.911325,-2.49625 4.272158,-3.84959 1.165863,-1.14106 2.406716,-2.20722 3.523785,-3.39587 0.87641,-1.04445 1.743167,-2.09786 2.542603,-3.2028 0.719211,-1.09531 1.417359,-2.20679 1.946193,-3.41022 0.538094,-1.27129 1.052026,-2.551 1.513983,-3.85244 0.411349,-1.375 0.787424,-2.77217 0.90095,-4.20813 0.09606,-1.59365 0.01306,-3.18612 -0.06247,-4.77962 -0.10603,-1.55672 -0.215633,-3.1334 -0.760094,-4.61086 -0.43685,-1.09535 -0.997897,-2.10722 -1.921885,-2.87237 -0.909575,-0.69797 -1.89963,-1.24073 -3.050578,-1.41087 -0.994918,-0.1079 -1.968402,0.0823 -2.92077,0.37713 -1.138587,0.37134 -2.247023,0.83074 -3.285286,1.43235 17.403087,-10.08761 10.34857,-6.37953 6.79836,-3.69058 -1.03806,0.80626 -1.970431,1.74022 -2.85843,2.70766 -0.882159,0.9922 -1.722542,2.02313 -2.486852,3.10929 -0.721312,1.1211 -1.443295,2.25315 -2.003729,3.46464 -0.579318,1.27489 -1.054388,2.5925 -1.414714,3.9467 -0.367945,1.51241 -0.726154,3.03342 -0.734095,4.60079 -0.03715,1.44248 0.03026,2.88721 0.430487,4.28361 0.359765,1.22163 0.869604,2.36096 1.704584,3.34098 1.088558,1.18144 2.443531,2.01839 3.912724,2.66053 2.274632,0.97852 4.648435,1.67947 7.086934,2.12164 4.086439,0.72421 8.211114,1.19066 12.354557,1.43688 6.139568,0.33788 12.295618,0.46623 18.433297,-0.0112 6.04685,-0.45023 12.09862,-1.06308 18.02193,-2.40885 2.49407,-0.63095 4.94792,-1.28642 7.34083,-2.24584 0.72021,-0.28877 2.78104,-1.35928 2.13264,-0.93306 -2.80358,1.84294 -10.82582,6.2886 -5.63561,3.39984 2.31744,-1.55644 4.33357,-3.14839 5.33804,-5.84451 0.58782,-1.96545 0.72597,-3.99437 0.58889,-6.04041 -0.15048,-2.11418 -0.32777,-4.24154 -1.03315,-6.2575 -0.597,-1.70432 -1.33598,-3.3511 -2.45447,-4.78576 -0.93147,-1.12874 -1.99861,-2.13104 -3.27876,-2.85893 -1.15004,-0.61216 -2.34877,-1.0559 -3.67351,-1.02303 -1.46168,0.0538 -2.91366,0.23346 -4.34489,0.53983 -1.55187,0.35592 -3.0769,0.8201 -4.46259,1.62603 3.06948,-1.78211 6.1391,-3.56398 9.20844,-5.34633 0.22195,-0.12888 -0.44596,0.25427 -0.66628,0.38593 -0.84802,0.50679 -1.61899,1.12744 -2.34088,1.80121 -1.07494,1.04342 -2.09844,2.13825 -3.15053,3.20439 -0.99166,1.10019 -1.9294,2.24721 -2.8019,3.44466 -0.85415,1.08963 -1.74792,2.14769 -2.55852,3.27082 -0.93019,1.29493 -1.79182,2.64083 -2.57505,4.02983 -0.90638,1.57814 -1.68787,3.21693 -2.4457,4.87089 -0.75491,1.65168 -1.47139,3.33002 -2.40869,4.88903 -0.89994,1.50825 -1.85533,2.98301 -2.91538,4.38475 -0.92567,1.23054 -1.819892,2.50518 -2.89078,3.61233 -0.963103,0.86971 -1.926403,1.74117 -2.945933,2.54505 -0.960601,0.75622 -1.920804,1.50785 -2.94948,2.17181 -3.98292,2.91195 -8.20018,5.6933 -12.834651,7.39706 -0.98653,0.24281 -1.990985,0.2301 -2.984906,0.0138 -1.111865,-0.25764 -2.207996,-0.5857 -3.229863,-1.10428 -1.42497,-0.71324 -2.80779,-1.50938 -4.143163,-2.37925 -1.969108,-1.30898 -3.924467,-2.64714 -5.763067,-4.13626 -1.413601,-1.17998 -2.795709,-2.42514 -3.617154,-4.10781 -0.569916,-1.20838 -1.023236,-2.4632 -1.031866,-3.8178 0.03579,-1.07426 0.293282,-2.12875 0.628855,-3.1479 0.364278,-0.9036 0.864106,-1.72722 1.456271,-2.50108 0.584493,-0.94314 1.270294,-1.81649 2.019981,-2.63449 3.598004,-3.66734 8.471313,-5.88412 13.175029,-7.87121 1.314956,-0.41912 2.671021,-0.69006 4.057003,-0.69132 1.308444,0.0314 2.612074,0.16844 3.905575,0.36709 1.371309,0.23539 2.732599,0.53066 4.063373,0.94082 1.424391,0.44197 2.835715,0.92422 4.26356,1.35513 1.693359,0.48486 3.400667,0.9036 5.140714,1.18752 2.617557,0.47742 5.242462,0.91321 7.881122,1.25875 3.4374,0.40116 6.89145,0.71547 10.35708,0.61183 2.24153,-0.12091 4.52147,-0.21681 6.67415,-0.91357 0.23266,-0.0851 0.46945,-0.15964 0.69797,-0.2553 0.22094,-0.0925 0.85525,-0.43018 0.64894,-0.30852 -3.1299,1.84571 -6.2924,3.63577 -9.42198,5.48201 -0.18939,0.11173 0.50282,-0.16859 0.94841,-0.50266 0.12236,-0.0917 0.22824,-0.20362 0.34237,-0.30543 0.63257,-0.81166 0.66812,-1.83565 0.52611,-2.82719 -0.2885,-1.27785 -0.85581,-2.42884 -1.74622,-3.4029 -0.82021,-0.89134 -1.74996,-1.67652 -2.74253,-2.37099 -0.70229,-0.47581 -1.41671,-0.93315 -2.11337,-1.41601 0,0 10.28844,-6.30477 10.28844,-6.30477 z"
           id="path23467"
           style="fill:#00ccff;fill-opacity:1;stroke:#000000;stroke-width:2;stroke-linecap:round;stroke-linejoin:round;stroke-miterlimit:4;stroke-dasharray:none;stroke-dashoffset:0;stroke-opacity:1" />
        <path
           id="path23469"
           d="m 90.695379,145.6322 12.161761,-0.12716 m 0,0 c 0,0 3.91497,17.97398 4,27.10714 0.0973,10.45397 -2.34253,20.78495 -4,31.10715 -1.67423,10.4266 -6.144089,20.54795 -6,31.10714 0.126272,9.25355 3.73379,18.13449 6,27.10714 1.79116,7.09176 5.94982,13.79286 6,21.10714 0.0879,12.81003 -9.18921,24.3225 -10,37.10715 -0.619853,9.77393 3.33178,19.33639 4,29.10714 0.662,9.67977 0,29.10714 0,29.10714 h -10 c 0,0 0.662002,-19.42737 0,-29.10714 -0.668224,-9.77075 -4.619853,-19.33321 -4,-29.10714 0.81079,-12.78465 10.087891,-24.29712 10,-37.10715 -0.05018,-7.31428 -4.208842,-14.01538 -6,-21.10714 -2.266212,-8.97265 -5.873728,-17.85359 -6,-27.10714 -0.144089,-10.55919 4.325768,-20.68054 6,-31.10714 1.657466,-10.3222 4.504992,-20.66493 4,-31.10715 -0.4456,-9.21412 -6.161761,-26.97998 -6.161761,-26.97998"
           style="fill:#00ccff;fill-opacity:1;stroke:#000000;stroke-width:2;stroke-linecap:round;stroke-linejoin:round;stroke-miterlimit:4;stroke-dashoffset:0;stroke-opacity:1" />
      </g>
      <path
         style="display:inline;fill:#5f3418;fill-opacity:1;stroke:#000000;stroke-width:2;stroke-linecap:round;stroke-linejoin:round;stroke-miterlimit:4;stroke-dashoffset:0;stroke-opacity:1"
         d="m 589.69988,680.65764 c -0.004,-0.0115 -0.0202,0.0676 -0.0566,0.2113 -2.11383,8.32279 -61.17014,245.93261 -101.77638,305.6998 -4.35703,6.41299 0.35363,15.12506 4.82316,20.15376 0.13525,-5.3725 0.53989,-10.34596 1.56495,-14.17155 3.73206,-13.92824 12.35678,-23.70325 17.83152,-22.2363 5.47474,1.46695 8.02628,14.23664 4.29422,28.16487 -0.8241,3.07558 -2.63903,7.67748 -4.91493,12.78868 6.06761,-2.2976 12.7063,-10.3197 12.44951,-17.74173 -1.95907,-55.63522 66.07198,-312.14086 65.78457,-312.86883 z"
         id="path23473"
         transform="translate(224.99433,18.501064)" />
      <path
         style="display:inline;fill:url(#linearGradient23745);fill-opacity:1;stroke:#000000;stroke-width:1;stroke-linecap:round;stroke-linejoin:round;stroke-miterlimit:4;stroke-dashoffset:0;stroke-opacity:1"
         d="m 258.63627,851.42775 c -3.35891,3.70005 -0.67969,10.42938 -2.90625,15 -3.0565,7.51691 -12.97895,3.5461 -19.09375,4.5 -5.84811,-0.11632 -6.14057,7.56605 -5.25,11.5625 4.07484,3.79028 11.34982,-1.24135 15.875,2.5625 6.13291,5.11735 -0.48347,12.82666 -2.5625,18.28125 -1.06672,1.82334 0.58524,3.5385 1.78125,1.1875 4.45714,-4.40738 5.81297,-13.1306 12.625,-14.4375 5.57644,1.18684 3.81496,9.58204 7.21875,12.09375 4.80327,-5.59111 9.48852,-15.76406 18.5625,-12.96875 1.69356,0.60931 3.90367,2.84031 3.9375,-0.21875 0.25064,-1.68737 2.13277,-7.2181 -0.59375,-6.28125 -8.24644,2.16643 -11.82632,-7.96859 -12.85621,-14.2923 -0.67237,-2.77054 -1.22497,-9.99674 -2.95629,-3.67645 -1.34969,2.88678 -2.56716,10.29201 -7.15625,7.46875 -3.97358,-6.04105 -1.71905,-15.15876 -6.40625,-20.8125 h -0.0625 l -0.15625,0.0312 z m -0.40625,0.21875 c 0.0429,-0.0577 -0.10364,-0.0325 0,0 z"
         id="path23475"
         transform="translate(224.99433,18.501064)" />
      <g
         transform="rotate(9.0981993,-3331.844,2221.1133)"
         id="g23479"
         style="display:inline">
        <path
           style="fill:#5f3418;fill-opacity:1;stroke:#000000;stroke-width:2;stroke-linecap:round;stroke-linejoin:round;stroke-miterlimit:4;stroke-dashoffset:0;stroke-opacity:1"
           d="m 263.65625,78.96875 c -0.007,-0.01 -0.002,0.07057 0,0.21875 0.11229,8.586297 3.2616,256.24484 -19.1875,321.625 -2.51782,7.33284 4.25623,14.51816 9.875,18.21875 -1.25989,-5.22453 -2.15625,-10.13321 -2.15625,-14.09375 0,-14.41957 5.80088,-26.09375 11.46875,-26.09375 5.66787,0 11.4375,11.67418 11.4375,26.09375 0,3.18408 -0.56203,8.0989 -1.4375,13.625 5.26619,-3.78975 11.00363,-10.55696 9.15625,-17.75 C 269.09847,347.41495 264.12228,79.597525 263.65625,78.96875 Z"
           id="path23477" />
      </g>
      <g
         id="g23499"
         transform="matrix(0.80600431,0,0,0.80600431,284.36218,672.18267)"
         style="display:inline">
        <path
           id="path23481"
           d="m 438.125,185.09375 c -5.04989,0 -9.125,2.38888 -9.125,5.3125 0,2.19272 2.31196,4.07138 5.59375,4.875 l 1,8.5 -14.5,4.25 -1.71875,-9.9375 c 1.74502,-0.96403 2.84375,-2.33707 2.84375,-3.84375 0,-2.92362 -4.10636,-5.28125 -9.15625,-5.28125 -5.04989,0 -9.125,2.35763 -9.125,5.28125 0,2.20705 2.30894,4.11159 5.625,4.90625 l 2.1875,11.625 -17.1875,1.0625 -6.84375,-2.875 L 385.5625,196.5 c 2.53523,-0.941 4.21875,-2.59581 4.21875,-4.46875 0,-2.92362 -4.10636,-5.28125 -9.15625,-5.28125 -5.04989,0 -9.125,2.35763 -9.125,5.28125 0,1.85696 3.65719,3.49264 6.15625,4.4375 l 1.375,10 L 362.875,198.5 c -0.39705,-2.7115 -4.30752,-4.84375 -9.09375,-4.84375 -5.04989,0 -9.15625,2.38888 -9.15625,5.3125 0,2.92362 4.10636,5.28125 9.15625,5.28125 0.91373,0 5.79246,-0.0743 6.625,-0.21875 l -6.21875,9.875 c -0.31747,-0.0195 -4.6423,-0.0312 -4.96875,-0.0312 -5.04989,0 -9.15625,2.38888 -9.15625,5.3125 0,2.92362 4.10636,5.28125 9.15625,5.28125 4.93786,0 8.91845,-2.26041 9.09375,-5.09375 l 6.0625,-9.625 12.53125,4.4375 -1.0625,6.46875 c -3.46026,0.75436 -7.90625,2.67039 -7.90625,4.9375 0,2.92362 4.07511,5.3125 9.125,5.3125 5.04989,0 9.15625,-2.38888 9.15625,-5.3125 0,-1.40319 -0.96088,-2.64641 -2.5,-3.59375 l 0.4375,-3.90625 8.09375,3.40625 c 0,0 6.93515,32.82153 12.40688,48.63096 6.6853,19.3158 27.70726,35.84094 24.81377,56.07509 -2.54248,17.7795 -29.44033,24.02595 -34.73927,41.18683 -4.80746,15.56918 7.28377,32.5026 4.96275,48.63096 -2.49399,17.33029 -19.31463,31.13034 -19.85101,48.63095 -0.71151,23.2146 19.29324,42.9748 22.33239,66.0006 6.78901,51.43621 -8.27054,99.34445 -9.92551,155.33014 9.90277,-0.0518 -0.45648,-0.0498 9.78125,-0.20312 1.65497,-56.05331 16.70151,-104.02719 9.92551,-155.53327 -3.03775,-23.09068 -23.03976,-42.92482 -22.33239,-66.20372 0.53369,-17.56343 17.3571,-31.44043 19.85101,-48.83408 2.32222,-16.19624 -9.77442,-33.19572 -4.96275,-48.83409 5.29699,-17.2157 32.19915,-23.55779 34.73927,-41.38995 2.89123,-20.29704 -18.13082,-36.89609 -24.81377,-56.27822 -5.47467,-15.87783 -12.40688,-48.83408 -12.40688,-48.83408 l 5.875,-1.75 1.9375,8.75 c -2.28881,0.96212 -3.78125,2.54969 -3.78125,4.3125 0,2.92362 4.10636,5.28125 9.15625,5.28125 5.04989,0 9.125,-2.35763 9.125,-5.28125 0,-1.95746 -1.83397,-3.67778 -4.5625,-4.59375 l -2.5,-11.21875 27.65625,-10.125 5.5,0.375 -0.0625,-0.25 c 1.16689,0.31279 2.47331,0.5 3.84375,0.5 5.04989,0 9.125,-2.38888 9.125,-5.3125 0,-2.92362 -4.07511,-5.28125 -9.125,-5.28125 -2.39135,0 -4.55815,0.5362 -6.1875,1.40625 L 445,201 l -0.625,-6.75 c 1.78511,-0.96611 2.90625,-2.31741 2.90625,-3.84375 0,-2.92362 -4.10636,-5.3125 -9.15625,-5.3125 z"
           style="fill:#00aa00;fill-opacity:1;stroke:#000000;stroke-width:1.90563;stroke-linecap:round;stroke-linejoin:round;stroke-miterlimit:4;stroke-dasharray:none;stroke-dashoffset:0;stroke-opacity:1" />
        <ellipse
           style="fill:url(#radialGradient23729);fill-opacity:1;stroke:none"
           id="ellipse23483"
           transform="matrix(0.96222453,0,0,0.96222453,-5.083648,9.2609566)"
           cx="364.41254"
           cy="216.20842"
           rx="4.7982244"
           ry="2.7779195" />
        <ellipse
           transform="matrix(0.96222453,0,0,0.96222453,22.773495,15.689528)"
           id="ellipse23485"
           style="fill:url(#radialGradient23731);fill-opacity:1;stroke:none"
           cx="364.41254"
           cy="216.20842"
           rx="4.7982244"
           ry="2.7779195" />
        <ellipse
           style="fill:url(#radialGradient23733);fill-opacity:1;stroke:none"
           id="ellipse23487"
           transform="matrix(0.96222453,0,0,0.96222453,26.344923,-17.8819)"
           cx="364.41254"
           cy="216.20842"
           rx="4.7982244"
           ry="2.7779195" />
        <ellipse
           transform="matrix(-0.96222453,0,0,0.96222453,792.43375,-19.524757)"
           id="ellipse23489"
           style="fill:url(#radialGradient23735);fill-opacity:1;stroke:none"
           cx="364.41254"
           cy="216.20842"
           rx="4.7982244"
           ry="2.7779195" />
        <ellipse
           style="fill:url(#radialGradient23737);fill-opacity:1;stroke:none"
           id="ellipse23491"
           transform="matrix(-0.96222453,0,0,0.96222453,769.50518,21.260957)"
           cx="364.41254"
           cy="216.20842"
           rx="4.7982244"
           ry="2.7779195" />
        <ellipse
           transform="matrix(-0.96222453,0,0,0.96222453,767.36232,-15.667614)"
           id="ellipse23493"
           style="fill:url(#radialGradient23739);fill-opacity:1;stroke:none"
           cx="364.41254"
           cy="216.20842"
           rx="4.7982244"
           ry="2.7779195" />
        <ellipse
           style="fill:url(#radialGradient23741);fill-opacity:1;stroke:none"
           id="ellipse23495"
           transform="matrix(-0.96222453,0,0,0.96222453,708.07661,-10.953329)"
           cx="364.41254"
           cy="216.20842"
           rx="4.7982244"
           ry="2.7779195" />
        <ellipse
           style="fill:url(#radialGradient23743);fill-opacity:1;stroke:none"
           id="ellipse23497"
           transform="matrix(-0.96222453,0,0,0.96222453,808.50518,-9.3461864)"
           cx="364.41254"
           cy="216.20842"
           rx="4.7982244"
           ry="2.7779195" />
      </g>
      <path
         id="path23501"
         d="m 654.89442,847.8964 -1.194,6.85104 c -16.05949,11.39103 -2.91036,-25.89238 -11.68706,3.42552 -11.12719,-27.21074 -12.62673,-41.18891 -7.06946,-7.64768 l 3.49351,8.8754 -17.80835,1.84517 c 15.1258,-54.7143 -0.47417,0.11034 -5.5161,-2.31726 -3.65203,-15.30086 -12.46205,-50.37412 -6.13283,-9.82787 l -0.86933,7.81285 c -10.99747,-4.44055 -43.54972,-26.32162 -13.14445,-3.08507 17.74013,8.21648 -30.21093,14.58928 11.43169,7.30649 l 5.84353,3.14846 6.5236,2.74545 c 0,0 10.34615,18.91532 10,29.19676 -0.69572,20.66429 -27.47321,36.81458 -24,57.19677 2.5054,14.70273 26.41809,18.7186 30,33.19676 2.46568,28.70481 -11.35486,51.27251 -16,78.39351 -0.57348,18.7111 7.6937,35.2677 8,53.1968 0.39663,23.2158 -6.66446,46.016 -8,69.1967 -0.32971,5.7228 -1.32845,-1.9299 0,17.1968 0.13589,1.9565 6.02491,0.9999 5.88373,0 -2.57742,-18.2549 -0.33207,-11.5832 0,-17.3605 1.33553,-23.2351 8.39543,-46.0904 8,-69.3605 -0.30559,-17.983 -8.57014,-34.5975 -8,-53.3604 4.81179,-27.25 18.22602,-49.8892 16,-78.72101 -3.58112,-14.52011 -27.49831,-18.61601 -30,-33.36048 -3.46707,-20.43429 22.8419,-36.66654 24,-57.36049 0.53093,-9.48718 -8,-27.36048 -8,-27.36048 l 4.73528,-1.41051 7.55629,-2.21651 22.29105,-8.16079 c 16.41235,-16.63317 15.95669,-18.63271 -1.4354,-3.42556 -1.39836,-8.12796 -9.23591,-28.28824 -4.9017,-4.60937 z"
         style="display:inline;fill:#d4ff2a;fill-opacity:1;stroke:#000000;stroke-width:1;stroke-linecap:round;stroke-linejoin:round;stroke-miterlimit:4;stroke-dasharray:none;stroke-dashoffset:0;stroke-opacity:1"
         transform="translate(224.99433,18.501064)" />
      <path
         id="path23503"
         d="m 581.10849,881.92537 c 1.63582,4.72194 -2.72408,16.58086 -2.47153,21.65869 -0.14135,8.11333 9.79637,1.63603 15.04518,4.91485 5.42388,2.18986 2.67561,9.36978 0.287,12.69534 -5.23603,1.88533 -9.95028,-5.59922 -15.6058,-3.87827 -7.64993,2.29747 -4.77975,6.19698 -5.01005,12.02981 0.26489,2.09578 -1.74122,8.81321 -1.91777,6.18139 -2.36801,-5.80376 -0.18887,-14.35854 -5.94025,-18.23583 -5.59448,-1.09866 -7.27174,7.31377 -11.38849,8.28683 -2.22141,-7.02832 -4.53479,-18.22395 -13.97749,-19.21704 -1.79678,-0.10479 -4.70552,1.07893 -3.5352,-1.74761 0.43221,-1.65022 0.8735,-7.47574 3.01299,-5.54334 6.73295,5.23112 16.00567,-2.68353 19.43643,-8.09462 1.70646,-2.28385 6.54663,-5.35107 5.65656,1.14133 0.10746,3.1849 -3.17519,7.11197 2.15398,6.31792 6.0269,-3.99502 7.53448,-13.26555 14.06554,-16.62411 l 0.0575,0.0246 0.13144,0.0901 -2e-5,5e-5 z m 0.28769,0.36072 c -0.0168,-0.0699 0.10808,0.0108 0,0 z"
         style="display:inline;fill:url(#linearGradient23727);fill-opacity:1;stroke:#000000;stroke-width:1;stroke-linecap:round;stroke-linejoin:round;stroke-miterlimit:4;stroke-dashoffset:0;stroke-opacity:1"
         transform="translate(224.99433,18.501064)" />
      <path
         style="display:inline;fill:#00e900;fill-opacity:1;stroke:#000000;stroke-width:1.64004;stroke-miterlimit:4;stroke-opacity:1"
         d="m 456.81417,818.8787 c -7.93919,0.11044 -17.20723,12.50466 -21.625,25.65625 -4.23018,12.59315 -2.63208,24.85919 3.34375,29.71875 -8.49742,22.88382 -17.97905,77.66911 -7.21875,111.59375 27.13442,42.58375 24.30826,37.72375 24,72.71875 2.0101,14.0194 15.56984,31.1876 16,45.3438 0.57014,18.7628 -16.02784,28.7073 -18,47.375 -2.44512,23.1446 6.66447,30.1086 8,53.3437 7.6808,0.2091 0.40703,0.3316 7.875,0.1875 -1.33554,-23.1808 -10.44707,-30.1288 -8,-53.2187 1.97289,-18.6156 18.57348,-28.4765 18,-47.1875 -0.43232,-14.1056 -13.98983,-31.2193 -16,-45.1875 -1.15441,-33.2259 0.79629,-38.5486 -18.0625,-63.4688 -2.39677,-2.71608 -4.64682,-5.60028 -5.9375,-8.9375 -3.86764,-10.0003 -5.03768,-20.8308 -4.875,-31.78125 0.16268,-10.95045 -6.92258,-28.62053 3.25,-33.1875 33.63549,-15.10061 36.84448,-9.28751 47.125,-17.8125 4.5022,-3.7334 10.36653,-12.05577 15.09375,-20 5.96373,-1.35989 12.24548,-8.39031 15.46875,-18.09375 4.08184,-12.2881 5.05636,-30.64492 -1.96875,-33.03125 -0.43907,-0.14915 -0.89754,-0.25932 -1.375,-0.28125 -7.16196,-0.32899 -18.26702,13.13614 -22.09375,24.65625 -4.08186,12.2881 -1.68138,24.20742 5.34375,26.59375 0.18778,0.0638 0.37203,0.10723 0.5625,0.15625 -3.91833,6.65268 -8.74217,13.22671 -14.84375,16.15625 -17.04128,8.18201 -40.25931,9.12254 -42.78125,11.0625 -6.17784,4.75221 5.25745,-24.71046 9.09375,-34.71875 7.31354,-0.63413 15.27856,-6.58048 19.125,-18.03125 4.87478,-14.5121 1.29606,-36.43177 -7.09375,-39.25 -0.78654,-0.26421 -1.58495,-0.38642 -2.40625,-0.375 z"
         id="path23505"
         transform="translate(224.99433,18.501064)" />
      <path
         style="display:inline;fill:url(#radialGradient23725);fill-opacity:1;stroke:none"
         d="m 441.54712,838.27469 c 3.42665,-7.18868 17.19605,-17.59999 17.19605,-17.59999 0,0 -7.90399,12.0489 -10.82814,18.50802 -4.0846,9.02247 -9.26459,28.02186 -9.26459,28.02186 0,0 -1.34194,-20.0378 2.89668,-28.92989 z"
         id="path23507"
         transform="translate(224.99433,18.501064)" />
      <path
         id="path23509"
         d="m 496.75776,849.0062 c 4.01596,-7.01623 17.85091,-16.20622 17.85091,-16.20622 0,0 -8.69841,11.52149 -12.1659,17.84273 -4.84359,8.82987 -11.92793,27.80113 -11.92793,27.80113 0,0 1.27536,-20.75887 6.24292,-29.43764 z"
         style="display:inline;fill:url(#radialGradient23723);fill-opacity:1;stroke:none"
         transform="translate(224.99433,18.501064)" />
      <path
         style="display:inline;fill:url(#linearGradient23721);fill-opacity:1;stroke:#939393;stroke-width:0.680117;stroke-opacity:1"
         d="m 185.60064,1121.8902 c -4.54618,6.4763 -16.41386,14.4704 -24.73328,10.9314 -8.31941,-3.539 -6.08669,-15.6318 -1.54051,-22.1081 4.54619,-6.4763 16.41386,-14.4704 24.73328,-10.9314 8.31942,3.539 6.0867,15.6318 1.54051,22.1081 z"
         id="path23511"
         transform="translate(224.99433,18.501064)" />
      <path
         id="path23513"
         d="m 142.92454,1118.5038 c -2.12119,6.6344 -13.79372,12.2946 -22.37302,10.8325 -7.05303,-1.202 -12.69501,-8.4843 -11.93054,-14.0733 1.0038,-7.3387 10.91817,-16.4866 20.3131,-15.497 9.1965,0.9687 16.23189,11.7273 13.99046,18.7378 z"
         style="display:inline;fill:url(#linearGradient23719);fill-opacity:1;stroke:#939393;stroke-width:0.680117;stroke-opacity:1"
         transform="translate(224.99433,18.501064)" />
      <path
         style="display:inline;fill:url(#linearGradient23717);fill-opacity:1;stroke:#939393;stroke-width:0.680117;stroke-opacity:1"
         d="m 240.04181,1115.596 c -1.78105,7.7043 -13.48995,16.6308 -23.30133,14.9155 -8.38712,-1.4663 -12.51881,-11.5696 -11.00223,-18.1562 1.67263,-7.2645 10.91818,-16.4866 20.3131,-15.4971 9.1965,0.9687 15.63416,11.6277 13.99046,18.7378 z"
         id="path23515"
         transform="translate(224.99433,18.501064)" />
      <path
         id="path23517"
         d="m 213.21624,1190.5724 c -1.73435,6.4345 -13.13624,13.8899 -22.69037,12.4573 -8.1672,-1.2247 -12.19054,-9.6628 -10.71374,-15.164 1.62878,-6.0672 10.6319,-13.7695 19.78049,-12.943 8.95535,0.809 15.22422,9.7113 13.62362,15.6497 z"
         style="display:inline;fill:url(#linearGradient23715);fill-opacity:1;stroke:#939393;stroke-width:0.613349;stroke-opacity:1"
         transform="translate(224.99433,18.501064)" />
      <path
         style="display:inline;fill:url(#linearGradient23713);fill-opacity:1;stroke:#939393;stroke-width:0.583178;stroke-opacity:1"
         d="m 168.403,1192.6858 c -1.8464,6.6448 -16.48069,12.2018 -26.3807,10.4338 -7.40544,-1.3226 -12.56439,-8.4757 -11.04229,-13.301 1.67873,-5.3218 11.53236,-11.9405 20.38708,-11.3528 9.12182,0.6054 18.68618,8.281 17.03591,14.22 z"
         id="path23519"
         transform="translate(224.99433,18.501064)" />
      <path
         id="path23521"
         d="m 113.08366,1188.1139 c -1.29752,8.722 -16.445235,15.8827 -26.323947,13.5813 -7.38952,-1.7214 -13.033784,-10.9679 -11.018555,-17.3133 2.132134,-6.7135 12.837817,-11.5864 20.871459,-10.6936 7.775873,0.864 17.464973,7.7444 16.471043,14.4256 z"
         style="display:inline;fill:url(#linearGradient23711);fill-opacity:1;stroke:#939393;stroke-width:0.664635;stroke-opacity:1"
         transform="translate(224.99433,18.501064)" />
      <path
         style="display:inline;fill:url(#linearGradient23709);fill-opacity:1;stroke:#939393;stroke-width:0.576974;stroke-opacity:1"
         d="m 93.937322,1116.033 c -1.709649,5.924 -11.117529,10.9782 -18.032309,9.6727 -5.684636,-1.0733 -10.231984,-7.576 -9.615837,-12.5665 0.809047,-6.553 8.799883,-14.7215 16.37205,-13.8379 7.412236,0.865 13.082651,10.4718 11.276096,16.7317 z"
         id="path23523"
         transform="translate(224.99433,18.501064)" />
      <path
         id="path23525"
         d="m 250.82659,1117.4029 c 6.04989,6.987 21.8429,15.6116 32.91405,11.7934 11.07114,-3.818 8.09992,-16.8644 2.05005,-23.8515 -6.04988,-6.987 -21.8429,-15.6115 -32.91405,-11.7935 -11.07113,3.8182 -8.09993,16.8645 -2.05005,23.8516 z"
         style="display:inline;fill:url(#linearGradient23707);fill-opacity:1;stroke:#939393;stroke-width:0.814921;stroke-opacity:1"
         transform="translate(224.99433,18.501064)" />
      <path
         id="path23527"
         d="m 332.67674,1117.9222 c -1.78104,7.7043 -13.48995,16.6308 -23.30133,14.9155 -8.38712,-1.4663 -12.51881,-11.5695 -11.00223,-18.1562 1.67263,-7.2645 10.91818,-16.4866 20.31311,-15.4971 9.19649,0.9687 15.63415,11.6277 13.99045,18.7378 z"
         style="display:inline;fill:url(#linearGradient23705);fill-opacity:1;stroke:#939393;stroke-width:0.680117;stroke-opacity:1"
         transform="translate(224.99433,18.501064)" />
      <path
         style="display:inline;fill:url(#linearGradient23703);fill-opacity:1;stroke:#939393;stroke-width:0.632724;stroke-opacity:1"
         d="m 431.3146,1124.0692 c -1.78379,6.6577 -13.51074,14.3717 -23.33723,12.8893 -8.40004,-1.2671 -12.53809,-9.9979 -11.01918,-15.6898 1.67521,-6.2776 10.935,-14.247 20.34439,-13.3919 9.21066,0.8371 15.65824,10.0482 14.01202,16.1924 z"
         id="path23529"
         transform="translate(224.99433,18.501064)" />
      <path
         id="path23531"
         d="m 538.81279,1130.2878 c 1.78729,5.2853 13.53721,11.4091 23.38296,10.2324 8.41649,-1.006 12.56265,-7.937 11.04076,-12.4556 -1.67849,-4.9836 -10.95642,-11.3102 -20.38424,-10.6314 -9.22871,0.6646 -15.68892,7.9769 -14.03948,12.8546 z"
         style="display:inline;fill:url(#linearGradient23701);fill-opacity:1;stroke:#939393;stroke-width:0.564303;stroke-opacity:1"
         transform="translate(224.99433,18.501064)" />
      <path
         style="display:inline;fill:url(#linearGradient23699);fill-opacity:1;stroke:#939393;stroke-width:0.627284;stroke-opacity:1"
         d="m 474.97704,1195.7444 c 2.1268,5.6288 13.83021,10.4311 22.4322,9.1906 7.07169,-1.0198 12.72859,-7.1983 11.9621,-11.9401 -1.00645,-6.2264 -10.94705,-13.9877 -20.36683,-13.1481 -9.22083,0.8219 -16.27483,9.9498 -14.02747,15.8976 z"
         id="path23533"
         transform="translate(224.99433,18.501064)" />
      <path
         id="path23535"
         d="m 666.16568,1188.872 c -1.70955,6.5371 -11.1169,12.1143 -18.03129,10.6736 -5.68431,-1.1844 -10.2314,-8.3598 -9.61529,-13.8668 0.80901,-7.231 8.79939,-16.2447 16.37112,-15.2697 7.41182,0.9545 13.08191,11.5553 11.27546,18.4629 z"
         style="display:inline;fill:url(#linearGradient23697);fill-opacity:1;stroke:#939393;stroke-width:0.606074;stroke-opacity:1"
         transform="translate(224.99433,18.501064)" />
      <path
         id="path23537"
         d="m 679.33716,1121.1615 c -1.84254,7.8382 -16.44618,14.3933 -26.32545,12.3077 -7.38994,-1.56 -12.53809,-9.9979 -11.01918,-15.6898 1.67521,-6.2776 11.50821,-14.0851 20.34439,-13.3919 9.10272,0.7142 18.64706,9.7683 17.00024,16.774 z"
         style="display:inline;fill:url(#linearGradient23695);fill-opacity:1;stroke:#939393;stroke-width:0.632724;stroke-opacity:1"
         transform="translate(224.99433,18.501064)" />
      <path
         id="path23539"
         d="m 312.73758,1187.7714 c -1.59667,9.653 -14.25166,17.7258 -22.81269,15.1573 -6.40384,-1.9212 -10.86504,-12.3127 -9.54882,-19.3225 1.45169,-7.731 9.97261,-17.3462 17.62972,-16.4924 7.88809,0.8795 16.15887,12.0299 14.73179,20.6576 z"
         style="display:inline;fill:url(#linearGradient23693);fill-opacity:1;stroke:#939393;stroke-width:0.653637;stroke-opacity:1"
         transform="translate(224.99433,18.501064)" />
      <path
         style="display:inline;fill:url(#linearGradient23691);fill-opacity:1;stroke:#939393;stroke-width:0.664635;stroke-opacity:1"
         d="m 251.10541,1199.0951 c -8.58837,4.7835 -24.73658,-0.5239 -29.07321,-8.4886 -3.24391,-5.9578 1.32615,-15.6322 8.26637,-18.4098 7.34282,-2.9387 18.5886,0.9338 22.98502,6.7786 4.25538,5.6572 4.40071,16.4556 -2.17818,20.1198 z"
         id="path23541"
         transform="translate(224.99433,18.501064)" />
      <path
         id="path23543"
         d="m 355.71572,1200.8009 c -8.60793,3.7618 -24.79291,-0.412 -29.13943,-6.6754 -3.25129,-4.6852 1.32918,-12.2932 8.2852,-14.4775 7.35955,-2.311 18.63094,0.7343 23.03737,5.3306 4.26507,4.4489 4.41073,12.9408 -2.18314,15.8223 z"
         style="display:inline;fill:url(#linearGradient23689);fill-opacity:1;stroke:#939393;stroke-width:0.590064;stroke-opacity:1"
         transform="translate(224.99433,18.501064)" />
      <path
         style="display:inline;fill:url(#linearGradient23687);fill-opacity:1;stroke:#939393;stroke-width:0.561733;stroke-opacity:1"
         d="m 372.14981,1125.6802 c -8.60842,3.409 -24.79432,-0.3734 -29.14108,-6.0495 -3.25148,-4.2459 1.32925,-11.1405 8.28567,-13.1199 7.35997,-2.0943 18.63199,0.6654 23.03868,4.8307 4.26531,4.0317 4.41098,11.7273 -2.18327,14.3387 z"
         id="path23545"
         transform="translate(224.99433,18.501064)" />
      <path
         id="path23547"
         d="m 437.33155,1192.1926 c -1.78824,5.6159 -13.54452,12.1229 -23.39559,10.8726 -8.42105,-1.0689 -12.56945,-8.4336 -11.04674,-13.235 1.6794,-5.2954 10.96235,-12.0179 20.39527,-11.2965 9.2337,0.7061 15.69741,8.4759 14.04706,13.6589 z"
         style="display:inline;fill:url(#linearGradient23685);fill-opacity:1;stroke:#939393;stroke-width:0.581847;stroke-opacity:1"
         transform="translate(224.99433,18.501064)" />
      <path
         id="path23549"
         d="m 494.09486,1137.4647 c 6.0191,2.6088 18.39781,-0.4068 23.71539,-5.7895 4.37159,-4.4251 3.61818,-11.5245 -0.7015,-14.2656 -5.6721,-3.5993 -19.10485,-3.4821 -25.33921,2.0679 -6.10268,5.4329 -4.03496,15.2304 2.32532,17.9872 z"
         style="display:inline;fill:url(#linearGradient23683);fill-opacity:1;stroke:#939393;stroke-width:0.597166;stroke-opacity:1"
         transform="translate(224.99433,18.501064)" />
      <path
         style="display:inline;fill:url(#linearGradient23681);fill-opacity:1;stroke:#939393;stroke-width:0.502353;stroke-opacity:1"
         d="m 565.64349,1196.3406 c 1.79262,4.176 13.5777,9.0146 23.45291,8.0848 8.44168,-0.7948 12.60023,-6.2712 11.0738,-9.8415 -1.68352,-3.9376 -10.9892,-8.9365 -20.44524,-8.4001 -9.25632,0.5251 -15.73586,6.3028 -14.08147,10.1568 z"
         id="path23551"
         transform="translate(224.99433,18.501064)" />
      <path
         id="path23553"
         d="m 522.37429,1194.4799 c 1.78666,6.1926 13.53247,13.3677 23.37479,11.9889 8.41355,-1.1786 12.55826,-9.2994 11.03691,-14.5937 -1.67791,-5.8391 -10.95259,-13.2518 -20.37713,-12.4564 -9.22549,0.7786 -15.68344,9.3462 -14.03457,15.0612 z"
         style="display:inline;fill:url(#linearGradient23679);fill-opacity:1;stroke:#939393;stroke-width:0.610714;stroke-opacity:1"
         transform="translate(224.99433,18.501064)" />
      <path
         style="display:inline;fill:url(#linearGradient23677);fill-opacity:1;stroke:#939393;stroke-width:0.581392;stroke-opacity:1"
         d="m 582.14708,1127.3087 c 1.78676,5.6119 13.53324,12.1141 23.37612,10.8646 8.41403,-1.0681 12.55897,-8.4274 11.03753,-13.2253 -1.678,-5.2915 -10.95321,-12.0091 -20.37828,-11.2883 -9.22601,0.7056 -15.68433,8.4699 -14.03537,13.649 z"
         id="path23555"
         transform="translate(224.99433,18.501064)" />
      <path
         id="path23557"
         d="m 351.43899,974.16428 c -4.03454,-5.04508 -12.08562,-7.32488 -16.93069,-2.95015 -5.24224,4.73335 -16.53402,16.23243 -36.77608,46.92927 0,0 -19.98835,22.9822 -32.91817,30.5077 -16.366,9.5256 -38.51177,6.4871 -54.15619,17.1564 -13.48051,9.1935 -30.79988,38.0469 -30.79988,38.0469 l 2.9297,3.7072 c 0,0 17.31939,-28.8534 30.79988,-38.0469 15.64443,-10.6693 36.96231,-9.2221 54.15621,-17.1563 4.3317,-1.9989 12.14194,-7.5767 12.14194,-7.5767 3.60214,0.8654 7.19908,-0.8442 9.74705,2.3799 1.97359,2.4974 -0.3642,5.5949 0.28631,9.8419 l -13.92403,9.8339 c 0,0 -11.49706,9.7927 -53.36187,33.6952 l 2.92971,3.7073 c 0,0 62.22945,-33.111 97.98683,-66.8131 16.88801,-24.6607 37.20164,-33.9562 27.88928,-63.26252 z m -3.47664,4.12054 c 2.87228,3.63454 1.41596,12.85425 1.13823,17.65981 l -6.91558,9.36207 c -0.52889,-4.5114 -1.81061,-12.61559 -4.49001,-15.97292 -1.8515,-2.31991 -5.71388,-3.98271 -9.13919,-5.06931 l 8.95495,-9.88376 c 3.93616,0.37577 8.45186,1.37366 10.4516,3.90411 z m -13.74401,15.1695 c 2.66049,3.36655 3.85788,11.74578 4.29921,15.90018 l -9.07124,14.5449 c -3.03115,-2.2614 -9.08738,-8.3748 -9.64966,-12.0841 -0.65823,-4.342 -1.32272,-11.2422 -1.76247,-15.93793 l 6.81858,-7.52581 c 3.44332,1.0678 7.48318,2.72071 9.36561,5.10273 z m -19.21072,5.76352 c 0.98509,4.44966 2.00162,10.50116 0.61271,12.03676 -1.27841,1.4132 -3.61802,-0.087 -7.37717,-1.5139 z m 11.75043,27.64866 -12.10612,13.3617 -3.75646,4.1461 c -2.88374,3.1828 -9.78305,-5.2092 -11.75585,-7.7056 -2.54796,-3.2241 -0.85925,-7.3484 -1.34399,-11.6545 l 2.8663,-3.1636 4.43298,-4.8928 c 3.14371,-3.4697 6.75586,-1.0571 10.55005,-0.7373 1.99968,0.1686 8.42149,7.515 11.11309,10.646 z m -32.09577,1.606 c 1.25241,4.6335 0.15415,9.5014 -2.49676,13.6273 -1.37615,2.0894 -4.5367,2.0677 -9.25328,-0.6585 z m 13.61614,18.7903 -11.5249,7.1424 c -2.56062,1.5869 -3.53525,-8.121 -2.11509,-9.9354 2.40225,-3.0693 9.65206,0.9699 13.63999,2.793 z"
         style="display:inline;fill:url(#linearGradient23675);fill-opacity:1;stroke:#000000;stroke-width:1.19125;stroke-linecap:round;stroke-linejoin:round;stroke-miterlimit:4;stroke-dashoffset:0;stroke-opacity:1"
         transform="translate(224.99433,18.501064)" />
      <path
         style="display:inline;fill:url(#linearGradient23673);fill-opacity:1;stroke:#000000;stroke-width:1.48262;stroke-linecap:round;stroke-linejoin:round;stroke-miterlimit:4;stroke-dashoffset:0;stroke-opacity:1"
         d="m 198.93305,909.94537 c -8.3817,0.0446 -18.23523,5.90372 -19.09375,13.6875 -0.9289,8.42188 -1.77948,27.52832 5.59375,69.25 v 58.25003 l -6,58.2187 v 58.25 h 6.125 v -58.25 l 6,-58.2187 v -21.7813 c 4.27213,-2.736 6.26687,-7.375 11.59375,-7.375 4.12611,0 10.04841,5.3247 14.42983,7.8615 l -0.17983,21.7948 6,58.25 14,34.2187 h 6.125 l -14,-34.2187 c 0,0 -7.0173,-68.423 -1.9308,-126.91775 -5.31337,-34.10482 6.26896,-60.03705 -28.66295,-73.01978 z m 0.25,6.3125 c 6.00493,0 12.72257,8.19639 16.6928,12.0173 l 1.52595,13.4202 c -4.49628,-2.84671 -12.89632,-7.64957 -18.46875,-7.625 -3.85059,0.017 -9.07987,2.40617 -13.375,4.8125 v -15.71875 c 4.16543,-3.41189 9.44426,-6.90625 13.625,-6.90625 z m 0,24.125 c 5.56215,0 14.1228,5.08573 18.21875,7.75 l 4,19.28125 c -4.94791,1.16636 -16.24151,2.31483 -20.0625,0.0937 -4.47271,-2.59991 -11.20912,-7.08939 -15.78125,-10.15625 v -11.96875 c 4.29604,-2.43713 9.68948,-5 13.625,-5 z m -13.625,22.28125 c 4.88612,2.37324 11.21643,5.90384 11.21875,8.34375 0.002,2.2457 -3.60088,3.32746 -8.52123,5.79481 z m 35.84375,9.46875 v 21.25 6.59375 c 0,5.06188 -14.12555,5.31248 -18.25,5.31248 -5.32688,0 -7.32162,-4.639 -11.59375,-7.37498 v -5.03125 -7.78125 c 0,-5.51821 5.64728,-7.11719 9.625,-10.4375 2.0964,-1.74991 14.83417,-2.32756 20.21875,-2.53125 z m -29.84375,31.28123 c 5.30869,2.2588 8.5348,6.8953 9.59375,12.4375 0.50349,2.8383 -2.59402,5.7854 -9.59375,8.1875 z m 29.84375,1.1563 -2.02182,18.4846 c -0.39287,3.5919 -13.51018,-5.09 -13.72818,-7.7659 -0.36874,-4.5263 10.25704,-8.3306 15.75,-10.7187 z"
         id="path23559"
         transform="translate(224.99433,18.501064)" />
      <path
         style="display:inline;fill:url(#linearGradient23671);fill-opacity:1;stroke:#000000;stroke-width:0.416888;stroke-linecap:round;stroke-linejoin:round;stroke-miterlimit:4;stroke-dashoffset:0;stroke-opacity:1"
         d="m 510.77778,980.07214 c 2.60348,0.3029 5.25732,2.0897 4.97896,4.03744 -0.30115,2.10741 -1.37523,6.84466 -6.59122,16.86762 0,0 -2.03841,8.8458 -2.14733,13.3525 -0.52634,21.7787 7.32828,43.167 7.24779,64.9519 -0.10943,29.6154 -10.50524,88.2236 -10.50524,88.2236 l -1.90479,-0.2133 c 0,0 10.39582,-58.6082 10.50524,-88.2236 0.0805,-21.7849 -5.02735,-43.2804 -7.24781,-64.9519 -0.14901,-1.4544 -0.40765,-4.367 -0.40765,-4.367 -1.1369,-0.8229 -1.43223,-2.0354 -3.08883,-2.2209 -1.28317,-0.1437 -3.51973,3.362 -5.06003,3.8344 -2.64095,24.3283 -6.82536,44.4592 -8.99344,66.8328 -2.36779,24.4344 -2.14636,44.7325 -4.37506,73.5167 0,0 -1.90479,-0.2133 -1.90479,-0.2133 0,0 2.4549,-47.8913 4.78867,-71.7459 2.70602,-27.6594 9.41775,-75.3932 10.67589,-82.68803 4.04177,-8.21802 2.25662,-15.01081 14.02959,-16.99303 z m -0.52,1.54662 c -1.86746,-0.20913 -4.5308,1.57642 -6.03319,2.37957 l -1.41477,3.25345 c 1.59773,-0.54481 4.54653,-1.43562 6.27776,-1.2355 1.1963,0.1383 2.65516,0.90908 3.82229,1.65156 l 1.10126,-3.87293 c -1.05634,-0.98573 -2.4532,-2.03054 -3.75335,-2.17615 z m -1.6902,5.94415 c -1.72976,-0.19372 -4.74833,0.7612 -6.20878,1.27499 l -2.59479,4.6114 c 1.45703,0.45969 4.88875,1.13599 6.23264,0.7218 1.57311,-0.48482 3.98257,-1.35636 5.61931,-1.95277 l 0.83853,-2.94897 c -1.16528,-0.7501 -2.66302,-1.56941 -3.88691,-1.70646 z m 2.67619,5.96438 c -1.6858,0.41457 -3.90179,1.064 -4.07345,1.66509 -0.15797,0.55324 0.8867,0.94526 2.24401,1.72455 z m -11.81034,1.08465 -1.48878,5.23577 -0.46197,1.62459 c 1.85844,3.2294 6.96845,1.5865 9.42555,0.5312 l 0.35249,-1.2396 0.54516,-1.91722 c 0.38661,-1.35962 -1.25761,-1.95028 -2.26201,-2.90689 -0.52937,-0.50418 -4.45018,-1.09013 -6.11044,-1.32785 z m 7.08948,8.74676 c -3.41576,0.9862 -5.43073,3.1947 -1.44499,5.0818 z m -9.36206,-0.7545 0.40302,4.1376 c 6.56652,0.5872 3.0208,-2.448 -0.40302,-4.1376 z"
         id="path23561"
         transform="translate(224.99433,18.501064)" />
      <path
         id="path23563"
         d="m 283.96428,960.92284 c 2.63132,-0.72969 5.44938,-0.0488 5.35002,1.93797 -0.10747,2.14958 1.25382,7.13748 -3.04102,18.84585 0,0 -2.38473,9.37249 -0.92018,13.71357 7.89351,23.39717 11.24156,39.45797 13.21712,59.76527 3.26604,33.5724 -2.39714,101.1642 -2.39714,101.1642 l -1.9244,0.5419 c 0,0 5.6632,-67.5919 2.39715,-101.1643 -1.97556,-20.3072 -5.04588,-41.0698 -13.21715,-59.7652 -0.65793,-1.50529 -0.80899,-4.04951 -0.80899,-4.04951 -1.21253,-0.34707 -1.61929,-1.39992 -3.29294,-0.92867 -1.29638,0.36503 -3.21075,4.62197 -4.70763,5.68182 -0.40509,24.48726 -2.71931,45.28156 -2.85125,67.95166 -0.15252,26.2056 1.96473,49.9614 2.38141,78.5822 0,0 -1.92439,0.5418 -1.92439,0.5418 0,0 -1.97494,-51.3518 -1.80505,-77.0375 0.18509,-27.9833 2.48881,-76.36989 3.07653,-83.89534 3.2865,-9.50772 -1.12293,-15.35499 10.46786,-21.8857 z m -0.37786,1.6949 c -1.88668,0.53125 -4.38592,3.29756 -5.81449,4.66131 l -1.11577,3.6913 c -0.55826,1.8469 4.41459,-3.168 6.16421,-3.65447 1.20901,-0.33615 2.73871,-0.16566 3.97408,0.092 l 0.74532,-4.16541 c -1.14693,-0.53565 -2.63981,-0.99462 -3.95335,-0.62477 z m -1.1439,6.39304 c -1.74757,0.49207 -5.62475,3.32553 -5.96445,5.06427 l -0.64503,3.30158 c 1.49927,-0.12866 3.08572,-0.56911 4.39154,-1.49574 1.52856,-1.08466 4.11224,-2.36164 5.69417,-3.57884 l 0.5675,-3.17167 c -1.23421,-0.26577 -2.80725,-0.46778 -4.04374,-0.1196 z m 3.22434,4.69908 c -1.6477,1.06116 -3.80401,2.55678 -3.92043,3.20356 -0.10712,0.59527 0.97358,0.5632 2.40251,0.78175 z m -9.93039,6.06167 -0.78786,5.24968 -0.31266,1.74732 c 2.15523,2.38364 8.93161,-0.15336 9.47437,-3.18675 l 0.23856,-1.33326 0.36896,-2.06201 c 0.26165,-1.4623 -3.43685,-1.38643 -4.52917,-1.91438 -0.5757,-0.27827 -2.77009,1.07702 -4.4522,1.4994 z m 8.11307,6.66652 c -3.32513,2.29106 -5.13712,3.81185 -0.97796,4.06676 z m -9.4314,1.54781 0.78328,3.83019 c 6.62049,-2.01078 2.79582,-3.54513 -0.78328,-3.83019 z"
         style="display:inline;fill:url(#linearGradient23669);fill-opacity:1;stroke:#000000;stroke-width:0.416888;stroke-linecap:round;stroke-linejoin:round;stroke-miterlimit:4;stroke-dashoffset:0;stroke-opacity:1"
         transform="translate(224.99433,18.501064)" />
      <path
         style="display:inline;fill:#0000d4;fill-opacity:1;stroke:#000000;stroke-width:1.49797;stroke-linecap:round;stroke-linejoin:round;stroke-miterlimit:4;stroke-dashoffset:0;stroke-opacity:1"
         d="m 57.139625,1143.7336 c 0,0 26.040495,0.3331 39.054352,0 26.061823,-0.6668 52.046793,-4.6634 78.108703,-4 13.08198,0.333 25.96952,3.8095 39.05435,4 27.43963,0.3996 54.66765,-5.7133 82.1087,-6 76.87531,-0.803 153.48543,14.4429 230.32611,12 28.88122,-0.9181 57.21346,-10.1804 86.10871,-10 10.43676,0.065 20.63878,3.332 31.05435,4 12.99142,0.8333 39.05435,0 39.05435,0 v 8.6405 c 0,0 -26.06293,0.8332 -39.05435,0 -10.41557,-0.6681 -20.61759,-3.9349 -31.05435,-4 -28.89525,-0.1804 -57.22749,9.0818 -86.10871,10 -76.84068,2.4428 -153.4508,-12.8031 -230.32611,-12 -27.44105,0.2866 -54.66907,6.3995 -82.1087,6 -13.08483,-0.1906 -25.97237,-3.667 -39.05435,-4 -26.06191,-0.6634 -52.04688,3.3331 -78.108703,4 -13.013857,0.333 -39.054352,0 -39.054352,0 z"
         id="path23565"
         transform="translate(224.99433,18.501064)" />
      <path
         id="path23567"
         d="m 57.139625,1158.295 c 26.535668,-4.2935 51.996535,5.8003 78.108705,6 65.21147,0.4985 130.05939,-12.3621 195.27176,-12 55.23476,0.3067 110.12964,8.7876 165.27175,12 30.3293,1.7669 60.68767,4.9234 91.05436,4 31.88094,-0.9695 60.51859,-10 95.16305,-10 v 8.6404 c -34.90143,-3.2743 -63.28211,9.0306 -95.16305,10 -30.36669,0.9234 -60.72506,-2.2331 -91.05436,-4 -55.14211,-3.2124 -110.03699,-11.6933 -165.27175,-12 -65.21237,-0.3621 -130.06029,12.4985 -195.27176,12 -26.11217,-0.1996 -51.614118,-6.8955 -78.108705,-6 z"
         style="display:inline;fill:#ff2a2a;fill-opacity:1;stroke:#000000;stroke-width:1.49797;stroke-linecap:round;stroke-linejoin:round;stroke-miterlimit:4;stroke-dashoffset:0;stroke-opacity:1"
         transform="translate(224.99433,18.501064)" />
      <path
         id="path23569"
         d="m 262.86027,974.78301 c -0.35722,4.81939 5.11993,13.56367 5.11993,13.56367 0,0 -0.67573,-10.1629 0.19911,-15.13034 1.30063,-7.38513 7.40662,-21.24211 7.40662,-21.24211 0,0 -12.08211,14.12639 -12.72566,22.80878 z"
         style="display:inline;fill:url(#radialGradient23667);fill-opacity:1;stroke:none"
         transform="translate(224.99433,18.501064)" />
      <path
         style="display:inline;fill:url(#radialGradient23665);fill-opacity:1;stroke:none"
         d="m 488.0135,993.12616 c -1.14126,4.69592 5.11993,13.56364 5.11993,13.56364 0,0 -1.61554,-10.20882 -1.26326,-15.32105 0.59489,-8.63287 15.34304,-29.68344 15.34304,-29.68344 0,0 -16.39837,19.91418 -19.19971,31.44085 z"
         id="path23571"
         transform="translate(224.99433,18.501064)" />
      <path
         id="path23573"
         d="M 76.493436,753.56837 H 36.52046"
         style="display:inline;fill:none;stroke:#000000;stroke-width:3;stroke-linecap:butt;stroke-linejoin:miter;stroke-miterlimit:4;stroke-dasharray:none;stroke-opacity:1;marker-start:url(#DotM)"
         transform="translate(224.99433,18.501064)" />
      <path
         style="display:inline;fill:none;stroke:#000000;stroke-width:3;stroke-linecap:butt;stroke-linejoin:miter;stroke-miterlimit:4;stroke-dasharray:none;stroke-opacity:1;marker-start:url(#DotM)"
         d="m 268.09174,962.68228 -230.703321,-4e-4"
         id="path23575"
         transform="translate(224.99433,18.501064)" />
      <path
         id="path23577"
         d="M 394.83315,822.04183 V 722.09537"
         style="display:inline;fill:none;stroke:#000000;stroke-width:3;stroke-linecap:butt;stroke-linejoin:miter;stroke-miterlimit:4;stroke-dasharray:none;stroke-opacity:1;marker-start:url(#DotM)"
         transform="translate(224.99433,18.501064)" />
      <path
         id="path23579"
         d="m 224.70267,1066.0772 -194.298681,-3e-4"
         style="display:inline;fill:none;stroke:#000000;stroke-width:3;stroke-linecap:butt;stroke-linejoin:miter;stroke-miterlimit:4;stroke-dasharray:none;stroke-opacity:1;marker-start:url(#DotM)"
         transform="translate(224.99433,18.501064)" />
      <path
         style="display:inline;fill:none;stroke:#000000;stroke-width:3;stroke-linecap:butt;stroke-linejoin:miter;stroke-miterlimit:4;stroke-dasharray:none;stroke-opacity:1;marker-start:url(#DotM)"
         d="M 123.99002,1118.6514 H 32.562744"
         id="path23581"
         transform="translate(224.99433,18.501064)" />
      <path
         id="path23583"
         d="m 253.18706,878.56872 -216.306808,1.6e-4"
         style="display:inline;fill:none;stroke:#000000;stroke-width:3;stroke-linecap:butt;stroke-linejoin:miter;stroke-miterlimit:4;stroke-dasharray:none;stroke-opacity:1;marker-start:url(#DotM)"
         transform="translate(224.99433,18.501064)" />
      <path
         style="display:inline;fill:none;stroke:#000000;stroke-width:3;stroke-linecap:butt;stroke-linejoin:miter;stroke-miterlimit:4;stroke-dasharray:none;stroke-opacity:1;marker-start:url(#DotM)"
         d="M 114.13352,1012.9869 H 39.039007"
         id="path23585"
         transform="translate(224.99433,18.501064)" />
      <path
         id="path23587"
         d="m 76.493436,796.29495 -42.13173,-7e-5"
         style="display:inline;fill:none;stroke:#000000;stroke-width:3;stroke-linecap:butt;stroke-linejoin:miter;stroke-miterlimit:4;stroke-dasharray:none;stroke-opacity:1;marker-start:url(#DotM)"
         transform="translate(224.99433,18.501064)" />
      <path
         style="display:inline;fill:none;stroke:#000000;stroke-width:3;stroke-linecap:butt;stroke-linejoin:miter;stroke-miterlimit:4;stroke-dasharray:none;stroke-opacity:1;marker-start:url(#DotM)"
         d="m 507.7534,846.45702 c 0,0 0.71934,-91.64204 0,-123.29298"
         id="path23589"
         transform="translate(224.99433,18.501064)" />
      <path
         id="path23591"
         d="M 622.70825,862.73381 V 720.06007"
         style="display:inline;fill:none;stroke:#000000;stroke-width:3;stroke-linecap:butt;stroke-linejoin:miter;stroke-miterlimit:4;stroke-dasharray:none;stroke-opacity:1;marker-start:url(#DotM)"
         transform="translate(224.99433,18.501064)" />
      <path
         style="display:inline;fill:none;stroke:#000000;stroke-width:3;stroke-linecap:butt;stroke-linejoin:miter;stroke-miterlimit:4;stroke-dasharray:none;stroke-opacity:1;marker-start:url(#DotM)"
         d="M 337.286,929.94274 348.98894,720.8233"
         id="path23593"
         transform="translate(224.99433,18.501064)" />
      <path
         style="display:inline;fill:none;stroke:#000000;stroke-width:2;stroke-linecap:butt;stroke-linejoin:miter;stroke-miterlimit:4;stroke-dasharray:2, 2;stroke-dashoffset:0;stroke-opacity:1"
         d="m 691.622,744.48563 h 75.28016"
         id="path23595"
         transform="translate(224.99433,18.501064)" />
      <path
         id="path23597"
         d="m 691.622,842.1464 h 75.28016"
         style="display:inline;fill:none;stroke:#000000;stroke-width:2;stroke-linecap:butt;stroke-linejoin:miter;stroke-miterlimit:4;stroke-dasharray:2, 2;stroke-dashoffset:0;stroke-opacity:1"
         transform="translate(224.99433,18.501064)" />
      <path
         style="display:inline;fill:none;stroke:#000000;stroke-width:2;stroke-linecap:butt;stroke-linejoin:miter;stroke-miterlimit:4;stroke-dasharray:2, 2;stroke-dashoffset:0;stroke-opacity:1"
         d="m 691.622,1095.454 h 75.28016"
         id="path23599"
         transform="translate(224.99433,18.501064)" />
      <path
         id="path23601"
         d="m 691.622,1206.3396 h 75.28016"
         style="display:inline;fill:none;stroke:#000000;stroke-width:2;stroke-linecap:butt;stroke-linejoin:miter;stroke-miterlimit:4;stroke-dasharray:2, 2;stroke-dashoffset:0;stroke-opacity:1"
         transform="translate(224.99433,18.501064)" />
      <path
         id="path23603"
         d="m 119.7534,743.59149 c 0,0 0.71934,3.33672 0,-28.31421"
         style="display:inline;fill:none;stroke:#000000;stroke-width:3;stroke-linecap:butt;stroke-linejoin:miter;stroke-miterlimit:4;stroke-dasharray:none;stroke-opacity:1;marker-start:url(#DotM)"
         transform="translate(224.99433,18.501064)" />
      <text
         xml:space="preserve"
         style="font-size:29.7064px;line-height:1.25;font-family:sans-serif;word-spacing:0px;display:inline;stroke-width:0.74266"
         x="377.12622"
         y="717.1535"
         id="text23607"
         transform="matrix(1.0009911,0,0,0.99900988,224.99433,18.501064)"><tspan
           id="tspan23605"
           style="font-style:normal;font-variant:normal;font-weight:normal;font-stretch:normal;font-family:Arial;-inkscape-font-specification:Arial;stroke-width:0.74266"
           x="377.12622"
           y="717.1535">10</tspan></text>
      <text
         xml:space="preserve"
         style="font-size:30.0021px;line-height:1.25;font-family:sans-serif;word-spacing:0px;display:inline;stroke-width:0.75005"
         x="490.77805"
         y="713.76788"
         id="text23611"
         transform="translate(224.99433,18.501064)"><tspan
           id="tspan23609"
           style="font-style:normal;font-variant:normal;font-weight:normal;font-stretch:normal;font-family:Arial;-inkscape-font-specification:Arial;stroke-width:0.75005"
           x="490.77805"
           y="713.76788">11</tspan></text>
      <text
         xml:space="preserve"
         style="font-size:26.7237px;line-height:1.25;font-family:sans-serif;word-spacing:0px;display:inline;stroke-width:0.668092"
         x="111.37168"
         y="712.21997"
         id="text23615"
         transform="translate(224.99433,18.501064)"><tspan
           id="tspan23613"
           style="font-style:normal;font-variant:normal;font-weight:normal;font-stretch:normal;font-family:Arial;-inkscape-font-specification:Arial;stroke-width:0.668092"
           x="111.37168"
           y="712.21997">8</tspan></text>
      <text
         xml:space="preserve"
         style="font-size:26.7237px;line-height:1.25;font-family:sans-serif;word-spacing:0px;display:inline;stroke-width:0.668092"
         x="23.674179"
         y="761.10052"
         id="text23619"
         transform="translate(224.99433,18.501064)"><tspan
           id="tspan23617"
           style="font-style:normal;font-variant:normal;font-weight:normal;font-stretch:normal;font-family:Arial;-inkscape-font-specification:Arial;stroke-width:0.668092"
           x="23.674179"
           y="761.10052">1</tspan></text>
      <text
         xml:space="preserve"
         style="font-size:26.7237px;line-height:1.25;font-family:sans-serif;word-spacing:0px;display:inline;stroke-width:0.668092"
         x="18.585945"
         y="803.83905"
         id="text23623"
         transform="translate(224.99433,18.501064)"><tspan
           id="tspan23621"
           style="font-style:normal;font-variant:normal;font-weight:normal;font-stretch:normal;font-family:Arial;-inkscape-font-specification:Arial;stroke-width:0.668092"
           x="18.585945"
           y="803.83905">2</tspan></text>
      <text
         xml:space="preserve"
         style="font-size:26.7237px;line-height:1.25;font-family:sans-serif;word-spacing:0px;display:inline;stroke-width:0.668092"
         x="19.783487"
         y="885.97034"
         id="text23627"
         transform="translate(224.99433,18.501064)"><tspan
           id="tspan23625"
           style="font-style:normal;font-variant:normal;font-weight:normal;font-stretch:normal;font-family:Arial;-inkscape-font-specification:Arial;stroke-width:0.668092"
           x="19.783487"
           y="885.97034">3</tspan></text>
      <text
         xml:space="preserve"
         style="font-size:26.7237px;line-height:1.25;font-family:sans-serif;word-spacing:0px;display:inline;stroke-width:0.668092"
         x="20.292311"
         y="971.69427"
         id="text23631"
         transform="translate(224.99433,18.501064)"><tspan
           id="tspan23629"
           style="font-style:normal;font-variant:normal;font-weight:normal;font-stretch:normal;font-family:Arial;-inkscape-font-specification:Arial;stroke-width:0.668092"
           x="20.292311"
           y="971.69427">4</tspan></text>
      <text
         xml:space="preserve"
         style="font-size:26.7237px;line-height:1.25;font-family:sans-serif;word-spacing:0px;display:inline;stroke-width:0.668092"
         x="22.327604"
         y="1020.5669"
         id="text23635"
         transform="translate(224.99433,18.501064)"><tspan
           id="tspan23633"
           style="font-style:normal;font-variant:normal;font-weight:normal;font-stretch:normal;font-family:Arial;-inkscape-font-specification:Arial;stroke-width:0.668092"
           x="22.327604"
           y="1020.5669">5</tspan></text>
      <text
         xml:space="preserve"
         style="font-size:26.7237px;line-height:1.25;font-family:sans-serif;word-spacing:0px;display:inline;stroke-width:0.668092"
         x="13.677609"
         y="1075.011"
         id="text23639"
         transform="translate(224.99433,18.501064)"><tspan
           id="tspan23637"
           style="font-style:normal;font-variant:normal;font-weight:normal;font-stretch:normal;font-family:Arial;-inkscape-font-specification:Arial;stroke-width:0.668092"
           x="13.677609"
           y="1075.011">6</tspan></text>
      <text
         xml:space="preserve"
         style="font-size:26.7237px;line-height:1.25;font-family:sans-serif;word-spacing:0px;display:inline;stroke-width:0.668092"
         x="16.730549"
         y="1126.4021"
         id="text23643"
         transform="translate(224.99433,18.501064)"><tspan
           id="tspan23641"
           style="font-style:normal;font-variant:normal;font-weight:normal;font-stretch:normal;font-family:Arial;-inkscape-font-specification:Arial;stroke-width:0.668092"
           x="16.730549"
           y="1126.4021">7</tspan></text>
      <text
         xml:space="preserve"
         style="font-size:30.0021px;line-height:1.25;font-family:sans-serif;word-spacing:0px;display:inline;stroke-width:0.75005"
         x="605.91156"
         y="713.04828"
         id="text23647"
         transform="translate(224.99433,18.501064)"><tspan
           id="tspan23645"
           style="font-style:normal;font-variant:normal;font-weight:normal;font-stretch:normal;font-family:Arial;-inkscape-font-specification:Arial;stroke-width:0.75005"
           x="605.91156"
           y="713.04828">12</tspan></text>
      <text
         xml:space="preserve"
         style="font-size:30.0021px;line-height:1.25;font-family:sans-serif;word-spacing:0px;display:inline;stroke-width:0.75005"
         x="709.5318"
         y="803.71594"
         id="text23651"
         transform="translate(224.99433,18.501064)"><tspan
           id="tspan23649"
           style="font-style:normal;font-variant:normal;font-weight:normal;font-stretch:normal;font-family:Arial;-inkscape-font-specification:Arial;stroke-width:0.75005"
           x="709.5318"
           y="803.71594">13</tspan></text>
      <text
         xml:space="preserve"
         style="font-size:30.0021px;line-height:1.25;font-family:sans-serif;word-spacing:0px;display:inline;stroke-width:0.75005"
         x="710.97095"
         y="979.29468"
         id="text23655"
         transform="translate(224.99433,18.501064)"><tspan
           id="tspan23653"
           style="font-style:normal;font-variant:normal;font-weight:normal;font-stretch:normal;font-family:Arial;-inkscape-font-specification:Arial;stroke-width:0.75005"
           x="710.97095"
           y="979.29468">14</tspan></text>
      <text
         xml:space="preserve"
         style="font-size:30.0021px;line-height:1.25;font-family:sans-serif;word-spacing:0px;display:inline;stroke-width:0.75005"
         x="710.25134"
         y="1166.3867"
         id="text23659"
         transform="translate(224.99433,18.501064)"><tspan
           id="tspan23657"
           style="font-style:normal;font-variant:normal;font-weight:normal;font-stretch:normal;font-family:Arial;-inkscape-font-specification:Arial;stroke-width:0.75005"
           x="710.25134"
           y="1166.3867">15</tspan></text>
      <text
         xml:space="preserve"
         style="font-size:29.7064px;line-height:1.25;font-family:sans-serif;word-spacing:0px;display:inline;stroke-width:0.74266"
         x="340.39896"
         y="717.45941"
         id="text23663"
         transform="matrix(1.0009911,0,0,0.99900988,224.99433,18.501064)"><tspan
           id="tspan23661"
           style="font-style:normal;font-variant:normal;font-weight:normal;font-stretch:normal;font-family:Arial;-inkscape-font-specification:Arial;stroke-width:0.74266"
           x="340.39896"
           y="717.45941">9</tspan></text>
    </g>
  </g>
</svg>
